<svg width="30" height="30" viewBox="0 0 30 30" fill="none" xmlns="http://www.w3.org/2000/svg">
<path d="M20.9033 17.5752C20.584 17.4111 18.9932 16.6318 18.6973 16.5264C18.4014 16.415 18.1846 16.3623 17.9707 16.6904C17.7539 17.0156 17.1387 17.7393 16.9453 17.959C16.7578 18.1758 16.5674 18.2021 16.248 18.041C14.3496 17.0918 13.1045 16.3477 11.8535 14.2002C11.5225 13.6289 12.1846 13.6699 12.8027 12.4365C12.9082 12.2197 12.8555 12.0352 12.7734 11.8711C12.6914 11.707 12.0469 10.1191 11.7773 9.47168C11.5166 8.8418 11.2471 8.92969 11.0508 8.91797C10.8633 8.90625 10.6494 8.90625 10.4326 8.90625C10.2158 8.90625 9.86719 8.98828 9.57129 9.30762C9.27539 9.63281 8.44043 10.415 8.44043 12.0029C8.44043 13.5908 9.59766 15.1289 9.75586 15.3457C9.91992 15.5625 12.0322 18.8203 15.2754 20.2236C17.3262 21.1084 18.1289 21.1846 19.1543 21.0322C19.7783 20.9385 21.0644 20.2529 21.331 19.4941C21.5976 18.7383 21.5976 18.0908 21.5185 17.9561C21.4394 17.8125 21.2226 17.7305 20.9033 17.5752Z" fill="white"/>
<path d="M27.1054 9.91406C26.4433 8.34082 25.4941 6.92871 24.2841 5.71582C23.0741 4.50586 21.662 3.55371 20.0859 2.89453C18.4745 2.21777 16.7636 1.875 14.9999 1.875H14.9413C13.1659 1.88379 11.4462 2.23535 9.82902 2.92676C8.2675 3.59473 6.86711 4.54395 5.66887 5.75391C4.47063 6.96387 3.5302 8.37012 2.8798 9.9375C2.20598 11.5605 1.86613 13.2861 1.87492 15.0615C1.88371 17.0947 2.37004 19.1133 3.28117 20.918V25.3711C3.28117 26.1152 3.88469 26.7188 4.62883 26.7188H9.08488C10.8896 27.6299 12.9081 28.1162 14.9413 28.125H15.0029C16.7577 28.125 18.4599 27.7852 20.0624 27.1201C21.6298 26.4668 23.039 25.5293 24.246 24.3311C25.456 23.1328 26.4081 21.7324 27.0732 20.1709C27.7646 18.5537 28.1161 16.834 28.1249 15.0586C28.1337 13.2744 27.788 11.543 27.1054 9.91406ZM22.6786 22.7461C20.6249 24.7793 17.9003 25.8984 14.9999 25.8984H14.9501C13.1835 25.8896 11.4286 25.4502 9.87883 24.624L9.63273 24.4922H5.50773V20.3672L5.3759 20.1211C4.54973 18.5713 4.11027 16.8164 4.10148 15.0498C4.08977 12.1289 5.20598 9.38672 7.25383 7.32129C9.29875 5.25586 12.0321 4.11328 14.953 4.10156H15.0029C16.4677 4.10156 17.8886 4.38574 19.2275 4.94824C20.5341 5.49609 21.706 6.28418 22.7138 7.29199C23.7187 8.29688 24.5097 9.47168 25.0575 10.7783C25.6259 12.1318 25.9101 13.5674 25.9042 15.0498C25.8866 17.9678 24.7411 20.7012 22.6786 22.7461Z" fill="white"/>
</svg>
