<svg width="30" height="30" viewBox="0 0 30 30" fill="none" xmlns="http://www.w3.org/2000/svg">
<path d="M28.125 14.918C28.125 14.8535 28.125 14.7803 28.1221 14.6953C28.1191 14.458 28.1133 14.1914 28.1074 13.9073C28.084 13.0899 28.043 12.2754 27.9785 11.5078C27.8906 10.4502 27.7617 9.56839 27.5859 8.90628C27.4004 8.21531 27.0368 7.58513 26.5315 7.07873C26.0261 6.57233 25.3966 6.20744 24.7061 6.02054C23.877 5.79788 22.2539 5.66019 19.9688 5.57523C18.8818 5.53421 17.7187 5.50784 16.5557 5.49319C16.1484 5.48734 15.7705 5.48441 15.4307 5.48148H14.5693C14.2295 5.48441 13.8516 5.48734 13.4443 5.49319C12.2812 5.50784 11.1182 5.53421 10.0312 5.57523C7.74609 5.66312 6.12012 5.80081 5.29395 6.02054C4.60313 6.20698 3.97345 6.57172 3.468 7.07819C2.96256 7.58466 2.5991 8.21508 2.41406 8.90628C2.23535 9.56839 2.10938 10.4502 2.02148 11.5078C1.95703 12.2754 1.91602 13.0899 1.89258 13.9073C1.88379 14.1914 1.88086 14.458 1.87793 14.6953C1.87793 14.7803 1.875 14.8535 1.875 14.918V15.0821C1.875 15.1465 1.875 15.2198 1.87793 15.3047C1.88086 15.542 1.88672 15.8086 1.89258 16.0928C1.91602 16.9102 1.95703 17.7246 2.02148 18.4922C2.10938 19.5498 2.23828 20.4317 2.41406 21.0938C2.78906 22.4971 3.89062 23.6045 5.29395 23.9795C6.12012 24.2022 7.74609 24.3399 10.0312 24.4248C11.1182 24.4658 12.2812 24.4922 13.4443 24.5069C13.8516 24.5127 14.2295 24.5156 14.5693 24.5186H15.4307C15.7705 24.5156 16.1484 24.5127 16.5557 24.5069C17.7187 24.4922 18.8818 24.4658 19.9688 24.4248C22.2539 24.3369 23.8799 24.1992 24.7061 23.9795C26.1094 23.6045 27.2109 22.5 27.5859 21.0938C27.7646 20.4317 27.8906 19.5498 27.9785 18.4922C28.043 17.7246 28.084 16.9102 28.1074 16.0928C28.1162 15.8086 28.1191 15.542 28.1221 15.3047C28.1221 15.2198 28.125 15.1465 28.125 15.0821V14.918ZM26.0156 15.0703C26.0156 15.1319 26.0156 15.1992 26.0127 15.2783C26.0098 15.5069 26.0039 15.7588 25.998 16.0313C25.9775 16.8106 25.9365 17.5899 25.875 18.3135C25.7959 19.2569 25.6846 20.0303 25.5469 20.5489C25.3652 21.2256 24.832 21.7617 24.1582 21.9405C23.543 22.1045 21.9932 22.2364 19.8867 22.3155C18.8203 22.3565 17.6719 22.3828 16.5264 22.3975C16.125 22.4033 15.7529 22.4063 15.4189 22.4063H14.5811L13.4736 22.3975C12.3281 22.3828 11.1826 22.3565 10.1133 22.3155C8.00684 22.2334 6.4541 22.1045 5.8418 21.9405C5.16797 21.7588 4.63477 21.2256 4.45312 20.5489C4.31543 20.0303 4.2041 19.2569 4.125 18.3135C4.06348 17.5899 4.02539 16.8106 4.00195 16.0313C3.99316 15.7588 3.99023 15.5039 3.9873 15.2783C3.9873 15.1992 3.98438 15.1289 3.98438 15.0703V14.9297C3.98438 14.8682 3.98438 14.8008 3.9873 14.7217C3.99023 14.4932 3.99609 14.2412 4.00195 13.9688C4.02246 13.1895 4.06348 12.4102 4.125 11.6866C4.2041 10.7432 4.31543 9.96976 4.45312 9.4512C4.63477 8.77444 5.16797 8.23831 5.8418 8.0596C6.45703 7.89554 8.00684 7.7637 10.1133 7.6846C11.1797 7.64358 12.3281 7.61722 13.4736 7.60257C13.875 7.59671 14.2471 7.59378 14.5811 7.59378H15.4189L16.5264 7.60257C17.6719 7.61722 18.8174 7.64358 19.8867 7.6846C21.9932 7.76663 23.5459 7.89554 24.1582 8.0596C24.832 8.24124 25.3652 8.77444 25.5469 9.4512C25.6846 9.96976 25.7959 10.7432 25.875 11.6866C25.9365 12.4102 25.9746 13.1895 25.998 13.9688C26.0068 14.2412 26.0098 14.4961 26.0127 14.7217C26.0127 14.8008 26.0156 14.8711 26.0156 14.9297V15.0703ZM12.3926 18.9258L19.1895 14.9707L12.3926 11.0742V18.9258Z" fill="white"/>
</svg>
