<svg width="30" height="30" viewBox="0 0 30 30" fill="none" xmlns="http://www.w3.org/2000/svg">
<path d="M14.9999 2.30768C11.5556 2.30768 11.1224 2.32354 9.76911 2.38383C8.41579 2.44729 7.49401 2.65989 6.68646 2.97402C5.8394 3.29263 5.07215 3.7924 4.43834 4.4384C3.79274 5.07253 3.29303 5.83969 2.97396 6.68652C2.65983 7.49249 2.44565 8.41585 2.38377 9.76441C2.32348 11.1209 2.30762 11.5524 2.30762 15.0016C2.30762 18.4475 2.32348 18.8791 2.38377 20.2324C2.44723 21.5841 2.65983 22.5059 2.97396 23.3134C3.2992 24.148 3.73233 24.8556 4.43834 25.5616C5.14276 26.2676 5.85036 26.7023 6.68488 27.0259C7.49401 27.3401 8.4142 27.5543 9.76594 27.6161C11.1208 27.6764 11.5524 27.6923 14.9999 27.6923C18.4475 27.6923 18.8774 27.6764 20.2323 27.6161C21.5825 27.5527 22.5074 27.3401 23.315 27.0259C24.1615 26.7072 24.9282 26.2074 25.5615 25.5616C26.2675 24.8556 26.7006 24.148 27.0259 23.3134C27.3384 22.5059 27.5526 21.5841 27.6161 20.2324C27.6764 18.8791 27.6922 18.4475 27.6922 15C27.6922 11.5524 27.6764 11.1209 27.6161 9.766C27.5526 8.41585 27.3384 7.49249 27.0259 6.68652C26.7069 5.83967 26.2072 5.0725 25.5615 4.4384C24.9279 3.79216 24.1606 3.29236 23.3134 2.97402C22.5043 2.65989 21.5809 2.44571 20.2307 2.38383C18.8758 2.32354 18.4459 2.30768 14.9968 2.30768H15.0015H14.9999ZM13.8624 4.59547H15.0015C18.3904 4.59547 18.7918 4.60657 20.1292 4.66845C21.3667 4.72398 22.0394 4.93181 22.4868 5.10475C23.0786 5.33479 23.5022 5.61085 23.9464 6.05508C24.3906 6.49931 24.6651 6.92133 24.8952 7.5147C25.0697 7.96052 25.2759 8.63321 25.3315 9.87071C25.3933 11.2082 25.406 11.6096 25.406 14.9968C25.406 18.3841 25.3933 18.7871 25.3315 20.1245C25.2759 21.362 25.0681 22.0331 24.8952 22.4805C24.6917 23.0316 24.3669 23.5299 23.9448 23.9385C23.5006 24.3828 23.0786 24.6572 22.4852 24.8873C22.041 25.0618 21.3683 25.2681 20.1292 25.3252C18.7918 25.3855 18.3904 25.3997 15.0015 25.3997C11.6127 25.3997 11.2097 25.3855 9.87223 25.3252C8.63473 25.2681 7.96363 25.0618 7.51622 24.8873C6.9649 24.6841 6.46613 24.3599 6.05661 23.9385C5.63419 23.5293 5.30891 23.0305 5.10468 22.4789C4.93175 22.0331 4.72392 21.3604 4.66839 20.1229C4.6081 18.7855 4.59541 18.3841 4.59541 14.9936C4.59541 11.6048 4.6081 11.205 4.66839 9.86753C4.7255 8.63003 4.93175 7.95734 5.10627 7.50994C5.33632 6.91816 5.61238 6.49455 6.05661 6.05032C6.50084 5.60609 6.92286 5.33162 7.51622 5.10157C7.96363 4.92705 8.63473 4.7208 9.87223 4.66369C11.0431 4.60975 11.4968 4.59388 13.8624 4.59229V4.59547ZM21.776 6.70239C21.576 6.70239 21.378 6.74179 21.1932 6.81833C21.0084 6.89487 20.8405 7.00706 20.6991 7.14849C20.5576 7.28992 20.4454 7.45782 20.3689 7.64261C20.2923 7.8274 20.253 8.02545 20.253 8.22547C20.253 8.42548 20.2923 8.62353 20.3689 8.80832C20.4454 8.99311 20.5576 9.16101 20.6991 9.30244C20.8405 9.44388 21.0084 9.55606 21.1932 9.63261C21.378 9.70915 21.576 9.74854 21.776 9.74854C22.18 9.74854 22.5674 9.58808 22.853 9.30244C23.1386 9.01681 23.2991 8.62941 23.2991 8.22547C23.2991 7.82152 23.1386 7.43412 22.853 7.14849C22.5674 6.86286 22.18 6.70239 21.776 6.70239ZM15.0015 8.48249C14.137 8.469 13.2784 8.62763 12.4757 8.94915C11.6731 9.27067 10.9424 9.74866 10.3262 10.3553C9.71007 10.9619 9.22074 11.685 8.88674 12.4826C8.55274 13.2801 8.38073 14.1361 8.38073 15.0008C8.38073 15.8654 8.55274 16.7215 8.88674 17.519C9.22074 18.3165 9.71007 19.0397 10.3262 19.6463C10.9424 20.2529 11.6731 20.7309 12.4757 21.0524C13.2784 21.3739 14.137 21.5326 15.0015 21.5191C16.7127 21.4924 18.3447 20.7939 19.5453 19.5744C20.746 18.3549 21.4189 16.7121 21.4189 15.0008C21.4189 13.2894 20.746 11.6467 19.5453 10.4272C18.3447 9.20767 16.7127 8.50918 15.0015 8.48249ZM15.0015 10.7687C16.1237 10.7687 17.2 11.2145 17.9935 12.008C18.787 12.8015 19.2328 13.8778 19.2328 15C19.2328 16.1222 18.787 17.1984 17.9935 17.992C17.2 18.7855 16.1237 19.2313 15.0015 19.2313C13.8793 19.2313 12.8031 18.7855 12.0095 17.992C11.216 17.1984 10.7702 16.1222 10.7702 15C10.7702 13.8778 11.216 12.8015 12.0095 12.008C12.8031 11.2145 13.8793 10.7687 15.0015 10.7687Z" fill="white"/>
</svg>
