<svg width="80" height="80" viewBox="0 0 80 80" fill="none" xmlns="http://www.w3.org/2000/svg">
<g id="christmas-decorations">
<g id="Group">
<path id="Vector" d="M29.375 14.2813V20.625L25.9063 20.6563L22.4219 20.7031L22.375 24.2188L22.3282 27.7344L20.7344 28.4844C18.7032 29.4531 16.5469 30.9688 14.8282 32.6563C13.2969 34.1719 11.4844 36.5469 11.6875 36.75C11.7657 36.8281 12.8282 37.4688 14.0625 38.1875L16.2969 39.5L17.5625 38.75C18.2657 38.3438 19.9063 37.375 21.2344 36.5938L23.6407 35.1875L24.9063 35.9375C29.8907 38.8594 30.875 39.4219 31.0157 39.4219C31.1094 39.4219 32.75 38.4844 34.6875 37.3438C36.625 36.2031 38.2813 35.2656 38.3594 35.2656C38.4532 35.2656 40.1407 36.2188 42.1094 37.3906L45.7032 39.5L46.1719 39.2188C46.4375 39.0781 47.5 38.4375 48.5625 37.8281L50.4688 36.7031L49.8125 35.75C48.8282 34.3438 46.2188 31.6719 44.6875 30.5313C43.9532 29.9844 42.5 29.0938 41.4532 28.5625L39.5313 27.5938V24.1094V20.625H36.0938H32.6563L32.625 14.3281L32.5782 8.04688L30.9844 8L29.375 7.95313V14.2813Z" fill="white"/>
<path id="Vector_2" d="M51.8438 13.0781L51.7969 18.2031L49.1875 18.25L46.5625 18.2812V21.0625V23.8437L45.75 24.1875C44.9375 24.5312 42.3438 26.0937 42.3438 26.25C42.3438 26.2969 42.875 26.6094 43.5156 26.9531C47.7344 29.1562 51.8906 33.6406 54.0469 38.3125C56.8438 44.3594 57.1406 51.4375 54.8438 57.6562C54.0625 59.7812 54.0313 59.5781 55.0938 59.4531C55.5938 59.3906 56.5469 59.2344 57.1875 59.1094C63.7344 57.8125 69.2188 52.7969 71.1563 46.3594C71.75 44.375 71.9219 43.2187 71.9219 41.0156C71.9219 35.9687 70.0782 31.4844 66.5625 27.9687C65.1563 26.5625 63.3281 25.25 61.4531 24.3125L60.3125 23.75V21.0156V18.2812L57.7031 18.25L55.0781 18.2031L55.0313 13.0781L55 7.96873H53.4375H51.875L51.8438 13.0781Z" fill="white"/>
<path id="Vector_3" d="M20 40.0938C18.0625 41.2344 16.3594 42.1563 16.2188 42.125C16.0781 42.0938 14.7188 41.3438 13.2188 40.4688C11.7031 39.5938 10.4063 38.9219 10.3281 38.9688C10.0781 39.125 9.10939 41.7656 8.68751 43.4375C7.75001 47.25 7.75001 50.5938 8.67189 54.4531C9.00001 55.875 9.81251 58.2188 10.1406 58.7188C10.2344 58.875 10.9688 58.5156 13.1406 57.25C14.7188 56.3281 16.0781 55.5781 16.1719 55.5781C16.25 55.5781 17.9531 56.5469 19.9531 57.7031L23.5781 59.8438L27.2188 57.7031C29.2188 56.5313 30.9375 55.5781 31.0156 55.5781C31.1094 55.5781 32.8125 56.5313 34.8125 57.7031L38.4375 59.8281L42.0781 57.7031C44.0625 56.5313 45.7813 55.5781 45.8594 55.5781C45.9531 55.5781 47.3125 56.3281 48.875 57.25C50.4531 58.1875 51.7656 58.9063 51.7813 58.875C51.8125 58.8594 52.0938 58.1875 52.3906 57.4063C54.5938 51.875 54.4688 45.1875 52.0781 39.7969C51.8594 39.3125 51.625 38.9063 51.5625 38.9063C51.5 38.9063 50.2344 39.6094 48.7656 40.4688C47.2969 41.3438 45.9844 42.0781 45.8594 42.1406C45.7188 42.1875 44.125 41.3438 42.0781 40.1406C40.125 39 38.4531 38.0781 38.3438 38.0781C38.25 38.0781 36.5781 39 34.625 40.1406C32.5 41.3906 30.9844 42.1719 30.8281 42.125C30.7031 42.0781 29.0781 41.1406 27.2344 40.0625C25.3906 38.9844 23.7969 38.0781 23.7031 38.0469C23.5938 38.0156 21.9375 38.9375 20 40.0938ZM13.125 48.8281V50H12.1094H11.0938V48.8281V47.6563H12.1094H13.125V48.8281ZM21.0938 48.8281V50H19.0625H17.0313V48.8281V47.6563H19.0625H21.0938V48.8281ZM29.0625 48.8281V50H27.0313H25V48.8281V47.6563H27.0313H29.0625V48.8281ZM37 48.8594L37.0469 50H35H32.9688V48.8281V47.6406L34.9688 47.6875L36.9531 47.7344L37 48.8594ZM44.8438 48.8281V50H42.8906H40.9375V48.8281V47.6563H42.8906H44.8438V48.8281ZM50.9375 48.8281V50H49.9219H48.9063V48.8281V47.6563H49.9219H50.9375V48.8281Z" fill="#FFE800"/>
<path id="Vector_4" d="M13.8281 59.6094C12.625 60.3281 11.5781 60.9531 11.4843 60.9844C11.4062 61.0156 11.6718 61.5156 12.0781 62.0781C15.6875 67.125 20.5156 70.2969 26.625 71.5937C28.6875 72.0312 32.7812 72.0781 34.9531 71.6719C39.6093 70.8125 43.9531 68.5312 47.2656 65.2031C48.7499 63.6875 50.5312 61.375 50.4374 61.0781C50.4062 60.9844 49.3593 60.3125 48.1249 59.5781C46.4687 58.6094 45.7968 58.2969 45.6249 58.4062C43.9687 59.4219 38.5781 62.5 38.4374 62.5C38.3281 62.5 36.7656 61.625 34.9375 60.5781C33.125 59.5156 31.4843 58.5625 31.2968 58.4687C31 58.3125 30.5312 58.5312 27.3593 60.3906C25.375 61.5469 23.6718 62.5 23.5781 62.5C23.4687 62.5 21.8281 61.5781 19.9062 60.4687C18 59.3437 16.3281 58.4062 16.2187 58.375C16.1093 58.3281 15.0312 58.8906 13.8281 59.6094Z" fill="white"/>
</g>
</g>
</svg>
