<svg width="80" height="80" viewBox="0 0 80 80" fill="none" xmlns="http://www.w3.org/2000/svg">
<g id="delivery-truck" clip-path="url(#clip0_55_277)">
<g id="Group">
<path id="Vector" d="M13.8126 12.0156C12.2657 12.3906 10.7032 13.6719 10.0313 15.125C9.68756 15.875 9.60944 16.2812 9.56256 17.6875L9.50006 19.375H5.40631C1.84381 19.375 1.26569 19.4062 0.781313 19.6562C-0.109312 20.0938 -0.249937 21.1719 0.500063 21.875C0.828188 22.1875 1.01569 22.1875 9.45319 22.1875C15.3594 22.1875 18.2344 22.2344 18.5782 22.3594C19.0782 22.5312 19.5313 23.1719 19.5313 23.7344C19.5313 23.9062 19.3594 24.25 19.1251 24.5156L18.7344 24.9844L14.5313 25.0312C10.3907 25.0781 10.3126 25.0781 9.96881 25.4375C9.67194 25.7188 9.59381 26.0156 9.53131 27L9.45319 28.2031L7.68756 28.2812C6.06256 28.3594 5.89069 28.3906 5.60944 28.7344C5.28131 29.1406 5.21881 29.8594 5.48444 30.3438C5.85944 31.0469 6.32819 31.0938 12.7188 31.0938H18.7188L19.1251 31.5781C19.5938 32.125 19.6251 32.4844 19.2969 33.1094C18.9376 33.8281 18.4219 33.9062 14.1876 33.9062H10.2969L9.92194 34.2969C9.54694 34.6562 9.53131 34.75 9.53131 36.7969V38.9375L9.98444 39.3906L10.4376 39.8438H14.7657C19.9688 39.8438 20.1563 39.8906 20.1563 41.3281C20.1563 41.7188 20.0313 41.9531 19.6719 42.25L19.1876 42.6562H14.9063C9.54694 42.6562 9.54694 42.6562 9.53131 44.6406V45.7656L5.14069 45.8125L0.750063 45.8594L0.375063 46.2969C-0.140562 46.9062 -0.109312 47.5625 0.453188 48.1406L0.906313 48.5938H5.21881H9.53131V54.4375V60.2812L10.0157 60.6875C10.4063 61.0156 10.6563 61.0938 11.3438 61.0938C12.9063 61.0938 13.4376 60.5 13.4376 58.7656C13.4376 56.1719 15.3438 52.625 17.6876 50.8594C21.1251 48.2656 25.5001 47.7344 29.2032 49.4688C33.0313 51.2656 35.3126 54.4375 35.7813 58.625C35.9844 60.4844 36.0313 60.5781 36.5626 60.8594C36.9532 61.0625 38.2813 61.0938 45.3907 61.0938H53.7813L54.2344 60.6406L54.6876 60.1719L54.6563 38.1719L54.6094 16.1719L54.1719 15.2344C53.4376 13.6719 52.2032 12.5938 50.6251 12.125C49.8751 11.9062 47.8126 11.875 32.0469 11.8906C22.2813 11.9062 14.0782 11.9531 13.8126 12.0156ZM27.5626 28.7656C28.0313 29.3125 28.0626 29.6719 27.7344 30.3125C27.4219 30.9219 26.6251 31.1406 25.0938 31.0625C24.0469 31.0156 23.8594 30.9531 23.4844 30.5938C22.9063 30.0156 22.9219 29.1406 23.5157 28.6406C23.8907 28.3125 24.0782 28.2812 25.5469 28.2812C27.1563 28.2812 27.1563 28.2812 27.5626 28.7656ZM17.9844 46.2344C18.5938 46.8594 18.5938 47.5156 17.9844 48.1406L17.5313 48.5938H15.0313C12.7813 48.5938 12.5001 48.5625 12.1407 48.2812C11.6563 47.8906 11.4844 47.2656 11.7344 46.6875C12.0469 45.9062 12.4844 45.7969 15.1251 45.7812H17.5313L17.9844 46.2344Z" fill="white"/>
<path id="Vector_2" d="M57.9531 32.0156L57.5 32.4688V41.3906V50.2969L57.875 50.7344C58.4219 51.375 59.2188 51.3281 60.25 50.5781C66.375 46.1562 75.0156 48.9688 77.5156 56.2031C77.6875 56.7031 77.9062 57.8125 78 58.6562C78.1875 60.3281 78.4219 60.7812 79.125 60.7812C79.9844 60.7812 80 60.6562 80 53.7188C80 49.8906 79.9375 47.2031 79.8438 46.9531C79.5312 46.125 79.2188 46.0938 71.8125 46.0938C65.3438 46.0938 64.9688 46.0781 64.1562 45.7812C62.5312 45.1719 61.3125 43.875 60.7812 42.2031C60.5 41.3125 60.4688 40.7812 60.4688 36.8438V32.4688L60.0156 32.0156C59.6719 31.6875 59.4062 31.5625 58.9844 31.5625C58.5625 31.5625 58.2969 31.6875 57.9531 32.0156Z" fill="white"/>
<path id="Vector_3" d="M63.75 32L63.2812 32.4688V36.75C63.2812 40.5625 63.3125 41.0781 63.5781 41.6406C63.9062 42.3594 64.4219 42.875 65.0469 43.1094C65.3281 43.2188 67.6562 43.2812 71.6406 43.2812H77.7812L78.1875 42.7969C78.4062 42.5312 78.5938 42.1562 78.5938 41.9375C78.5938 41.5781 76.875 38.9219 74.1875 35.125C73.0156 33.4531 71.9844 32.5938 70.4844 32C69.7344 31.7031 69.2344 31.6562 66.9219 31.5938L64.2188 31.5312L63.75 32Z" fill="white"/>
<path id="Vector_4" d="M2.297 37.3438C1.81262 37.7344 1.64075 38.3594 1.89075 38.9375C2.172 39.625 2.76575 39.8438 4.297 39.8438C6.15637 39.8438 6.70325 39.5156 6.71887 38.3906C6.71887 37.9688 6.6095 37.6875 6.32825 37.4219C5.9845 37.0625 5.84387 37.0312 4.32825 37.0312C2.93762 37.0312 2.64075 37.0781 2.297 37.3438Z" fill="white"/>
<path id="Vector_5" d="M22.8906 51.4375C21.4531 51.7031 19.875 52.5938 18.6719 53.8125C16.9531 55.5469 16.25 57.2656 16.25 59.6875C16.25 62.125 16.9687 63.8594 18.6562 65.5625C21.3437 68.25 25.1094 68.875 28.4687 67.1719C29.5781 66.6094 31.0312 65.2969 31.7344 64.2031C33.4375 61.5469 33.4375 57.8281 31.7187 55.1563C30.9844 54.0156 29.5156 52.7344 28.2344 52.125C26.5156 51.2969 24.7656 51.0781 22.8906 51.4375Z" fill="#F88506"/>
<path id="Vector_6" d="M65.0781 51.4374C63.6875 51.6874 62.0469 52.6093 60.9219 53.7343C59.25 55.4061 58.4375 57.3436 58.4375 59.6874C58.4375 62.0311 59.25 63.9686 60.9219 65.6405C63 67.7186 65.8906 68.5624 68.7188 67.8905C70.8125 67.3905 72.7031 66.0311 73.9375 64.1561C75.6406 61.5468 75.6406 57.8436 73.9375 55.2186C72 52.2499 68.5625 50.7655 65.0781 51.4374Z" fill="#F88506"/>
</g>
</g>
<defs>
<clipPath id="clip0_55_277">
<rect width="80" height="80" fill="white"/>
</clipPath>
</defs>
</svg>
