<svg width="80" height="80" viewBox="0 0 80 80" fill="none" xmlns="http://www.w3.org/2000/svg">
<g id="flowers">
<g id="Group">
<path id="Vector" d="M52.5 5.75C51.6875 6.5625 51.8125 7 53.2968 8.53125C54.625 9.89063 55.0937 10.125 55.8437 9.84375C56.3125 9.67188 56.7031 8.90625 56.6094 8.375C56.5625 8.17188 55.9531 7.4375 55.2656 6.75C53.7031 5.20313 53.2343 5.03125 52.5 5.75Z" fill="white"/>
<path id="Vector_2" d="M59.422 6.76565C57.7657 8.4219 57.6407 8.76565 58.4376 9.56253C58.8595 9.96878 59.0001 10.0313 59.5001 9.95315C59.9688 9.87503 60.3438 9.59378 61.3751 8.5469C62.4845 7.40628 62.6563 7.15628 62.6563 6.70315C62.6407 6.1094 62.4376 5.76565 61.922 5.50003C61.2188 5.12503 60.922 5.26565 59.422 6.76565Z" fill="white"/>
<path id="Vector_3" d="M55.0625 11.375C54.875 11.4062 54.125 12.0469 53.375 12.7969C52.2656 13.9531 52.0312 14.2656 52.0312 14.6719C52.0312 15.375 52.625 15.9375 53.375 15.9375C53.875 15.9375 54.0937 15.7969 55.1562 14.75C55.8281 14.0937 56.4687 13.3594 56.5781 13.0937C56.9531 12.1875 56.0781 11.2031 55.0625 11.375Z" fill="white"/>
<path id="Vector_4" d="M58.7813 11.5C58.1719 11.75 57.9219 12.2343 58.0313 12.875C58.1094 13.25 58.5001 13.75 59.4376 14.6562C60.7657 15.9531 61.1563 16.1406 61.9532 15.8437C62.2501 15.7187 62.6563 14.9843 62.6563 14.5156C62.6563 14.0937 60.1251 11.4687 59.6094 11.375C59.4063 11.3281 59.0313 11.3906 58.7813 11.5Z" fill="white"/>
<path id="Vector_5" d="M73.9687 12.2031C73.1405 12.4375 71.9843 13.3125 71.453 14.1094C70.2187 15.9531 70.5155 18.5156 72.1405 20.0156C73.1249 20.9219 74.0155 21.2812 75.328 21.2812C77.1718 21.2812 78.7343 20.2969 79.5624 18.6094C80.0937 17.5313 80.0624 15.6875 79.4999 14.5938C78.4687 12.625 76.078 11.5938 73.9687 12.2031ZM76.4218 15.0469C77.0468 15.4688 77.453 16.4375 77.2812 17.1094C77.2187 17.3438 76.9374 17.7813 76.6405 18.0781C76.1874 18.5313 76.0155 18.5938 75.3437 18.5938C74.3905 18.5938 73.6874 18.0938 73.453 17.2188C72.9374 15.4063 74.8593 14 76.4218 15.0469Z" fill="white"/>
<path id="Vector_6" d="M6.14073 13.4375C5.42198 13.7344 5.28135 14.2188 5.34385 16.1719C5.39073 17.875 5.42198 18.0157 5.76573 18.2969C6.32823 18.75 7.23448 18.6875 7.64073 18.1875C7.92198 17.8282 7.96885 17.5469 7.96885 16C7.96885 14.3907 7.9376 14.2032 7.6251 13.8438C7.21885 13.3907 6.64073 13.2344 6.14073 13.4375Z" fill="white"/>
<path id="Vector_7" d="M38.9061 17.0156C34.9374 20.0312 31.9374 24.7969 30.9843 29.6406C30.6718 31.2969 30.6249 35.2031 30.9218 36.7031C31.2343 38.3125 31.8436 40.2812 32.4374 41.5469L32.9843 42.7344L33.4843 41.75C34.6874 39.3906 36.4061 37.6719 38.6874 36.5469L39.9374 35.9219L40.6405 36.1875C43.0155 37.1094 45.2655 39.2656 46.5624 41.8281L47.0155 42.7344L47.5624 41.5469C49.6249 37.1094 49.8905 31.5156 48.2499 26.9062C47.1405 23.7344 45.4218 21.0625 42.9999 18.7188C41.7499 17.5156 40.203 16.25 39.9686 16.25C39.9374 16.25 39.4686 16.5938 38.9061 17.0156Z" fill="white"/>
<path id="Vector_8" d="M0.78125 18.8594C-0.25 19.3906 -0.25 20.6094 0.78125 21.1406C1.23437 21.375 1.625 21.4219 2.95312 21.375C4.5 21.3281 4.57812 21.2969 4.9375 20.8906C5.42187 20.3281 5.42187 19.6719 4.9375 19.1094C4.57812 18.7031 4.5 18.6719 2.95312 18.625C1.625 18.5781 1.23437 18.625 0.78125 18.8594Z" fill="white"/>
<path id="Vector_9" d="M8.81253 18.8125C7.68753 19.3125 7.7969 20.8594 8.9844 21.25C9.34378 21.375 10.125 21.4219 11.0313 21.375C12.2969 21.3281 12.5469 21.2656 12.8907 20.9375C13.4375 20.4219 13.4375 19.5625 12.875 19.0469C12.5157 18.7187 12.3282 18.6719 10.8907 18.6406C9.78128 18.6094 9.15628 18.6562 8.81253 18.8125Z" fill="white"/>
<path id="Vector_10" d="M5.76562 21.7031C5.40625 21.9844 5.39062 22.0937 5.39062 23.9687C5.39062 25.7812 5.42188 25.9531 5.73438 26.2812C6.25 26.7969 7.125 26.75 7.59375 26.1875C7.9375 25.7969 7.96875 25.625 7.96875 24C7.96875 22.4531 7.92188 22.1719 7.64062 21.8125C7.23438 21.3125 6.32812 21.25 5.76562 21.7031Z" fill="white"/>
<path id="Vector_11" d="M17.0312 26.9844C15.5625 27.0626 14.0937 27.3594 14 27.5782C13.9687 27.6876 13.8437 28.6251 13.7343 29.6719C13.4062 32.7969 13.9218 36.4063 15.125 39.3907C15.6562 40.7344 15.3906 40.6563 18.3593 40.2344C21.5312 39.7813 25.5312 40.1251 28.3437 41.0938C28.8593 41.2657 29.2968 41.3751 29.3281 41.3438C29.375 41.3126 29.2187 40.7032 29 40.0001C28.1562 37.3594 27.8593 33.9532 28.1718 30.6876L28.2812 29.4219L27.1562 28.9063C24 27.5001 20.2812 26.7969 17.0312 26.9844Z" fill="white"/>
<path id="Vector_12" d="M60.5468 26.9688C57.6562 27.2188 55.4999 27.7501 53.1406 28.7813L51.6874 29.4219L51.7812 30.1407C52.2343 33.6876 51.9374 37.1563 50.9218 40.2813C50.7343 40.8282 50.6249 41.2969 50.6562 41.3438C50.7031 41.3751 51.1406 41.2657 51.6562 41.0938C54.4687 40.1251 58.4687 39.7813 61.6406 40.2344C64.6093 40.6563 64.3437 40.7344 64.8749 39.3907C66.0468 36.4532 66.5781 32.8282 66.2656 29.8282C66.0156 27.2501 66.0781 27.3907 64.8749 27.2032C63.6406 27.0157 61.4218 26.8907 60.5468 26.9688Z" fill="white"/>
<path id="Vector_13" d="M39.1406 39.2813C36.6718 40.9063 35.0937 43.5625 34.7812 46.5781C34.5937 48.2813 34.7343 48.6406 35.7499 49.2656C37.8906 50.5938 39.8593 53.0313 40.6249 55.2969C40.8437 55.9063 41.0781 56.4062 41.1562 56.4062C41.2343 56.4062 41.7968 55.8906 42.4062 55.2656C44.4218 53.2188 45.1562 51.2031 45.1874 47.7344C45.2031 45.9063 45.1562 45.5781 44.7656 44.3906C44.0312 42.2188 42.6874 40.4688 40.8749 39.2969C40.4062 39 39.9999 38.75 39.9687 38.7656C39.9374 38.7656 39.5781 39 39.1406 39.2813Z" fill="#007E62"/>
<path id="Vector_14" d="M18.125 42.9062C14.4531 43.4999 10.4844 45.4218 7.73437 47.9374C6.73437 48.8593 5.25 50.5156 4.65625 51.3749L4.20312 52.0312L5.0625 53.1718C6.90625 55.6406 10.0781 58.1718 12.875 59.4531C14.3125 60.1093 16.1875 60.6874 17.9687 61.0156C19.4844 61.2968 23.5469 61.3593 23.8125 61.0937C23.9219 60.9843 23.9062 60.9374 23.7812 60.9374C23.4687 60.9374 21.4062 58.8749 20.75 57.9062C19.4375 55.9843 18.625 53.4843 18.7344 51.6874C18.75 51.3124 19.7187 50.2812 20.8125 49.4218C21.9531 48.5624 23.9844 47.5937 25.4062 47.2499C26.8125 46.9062 29.4375 46.9062 30.8281 47.2499C31.4219 47.3906 31.9687 47.4999 32.0469 47.4999C32.1406 47.4999 32.1875 47.1249 32.1562 46.6093L32.1094 45.7031L30.3906 44.8437C27.4687 43.3593 25.2656 42.8124 21.875 42.7187C20.3281 42.6874 19.1406 42.7343 18.125 42.9062Z" fill="white"/>
<path id="Vector_15" d="M56.0156 42.8281C53.6719 43.1249 51.0469 43.9999 48.9531 45.1562L47.8125 45.7968V46.6406C47.8125 47.1093 47.875 47.4999 47.9531 47.4999C48.0469 47.4999 48.5781 47.3906 49.1719 47.2499C50.6875 46.8749 53.3281 46.9062 54.8594 47.3124C56.7969 47.8281 58.6875 48.8749 60.2188 50.3124C61.2344 51.2499 61.3906 51.6406 61.2188 52.8593C60.8281 55.7343 59.1719 58.6406 56.8594 60.4687C56.4375 60.7968 56.1563 61.1093 56.25 61.1718C56.5625 61.3749 60.625 61.2656 62.0313 61.0156C67.1094 60.1406 71.8906 57.2343 74.875 53.2343L75.7813 51.9999L75.3281 51.3437C74.25 49.7812 72.125 47.6874 70.2813 46.3749C66.2656 43.4843 61.0469 42.2031 56.0156 42.8281Z" fill="white"/>
<path id="Vector_16" d="M26.7813 49.6719C25.1406 49.9375 23.1406 50.8438 22 51.875L21.3438 52.4531L21.5469 53.3438C22.2188 56.3906 24.9219 59.1563 28.2344 60.2344L29.0625 60.5L29.7969 59.8438C31.625 58.25 33.9063 57.2813 36.6094 56.9844C37.6719 56.875 38.2813 56.7344 38.2813 56.625C38.2813 56.2031 36.9844 53.9219 36.3281 53.1719C34.2344 50.7969 29.8594 49.1875 26.7813 49.6719Z" fill="#007E62"/>
<path id="Vector_17" d="M50.4375 49.6875C50.0156 49.75 49.25 49.9688 48.7031 50.1407L47.7031 50.4844L47.5 51.375C46.8906 54.125 45.0625 56.875 42.7344 58.5469C42.2656 58.875 42.2656 58.8906 42.5781 59.1406C43.2188 59.6563 45.125 60.4844 46.25 60.7188C48.3125 61.1563 51.0781 60.7188 53.4375 59.5781C55.7813 58.4531 57.8594 55.8438 58.4375 53.3125C58.6719 52.3125 58.5781 52.1719 57.0156 51.1563C55.1406 49.9375 52.4219 49.3282 50.4375 49.6875Z" fill="#007E62"/>
<path id="Vector_18" d="M35.7031 59.7812C33.4062 60.2812 31.5937 61.4844 29.8281 63.7031C28.1719 65.7812 27.5 67.6562 27.5 70.1562C27.5 71.7031 27.625 72.3593 28.1562 73.7031C28.4531 74.4843 28.5 74.5156 29.1719 74.625C30.0156 74.75 31.5 74.6093 32.6562 74.2812C34.7187 73.6875 37.0312 71.9687 38.0312 70.2812L38.4375 69.5781L38.125 68.8593C36.9687 66.25 36.875 62.3906 37.8906 59.7969C37.9844 59.5781 37.9062 59.5312 37.4062 59.5469C37.0625 59.5469 36.3125 59.6562 35.7031 59.7812Z" fill="#007E62"/>
<path id="Vector_19" d="M40.1718 61.375C39.8749 62.2656 39.7812 64.8437 39.9999 65.9687C40.3749 67.8906 41.8749 70.5156 43.453 72.0468C45.328 73.8593 48.5312 74.9687 50.8437 74.625C51.4999 74.5156 51.5468 74.4843 51.8437 73.7031C52.3749 72.3593 52.4999 71.7031 52.4999 70.1562C52.4999 67.875 51.8593 65.875 50.578 64.2031L50.0468 63.5312L48.0312 63.5C46.4843 63.4843 45.7499 63.4062 44.8749 63.1406C43.5312 62.75 42.0937 62.0468 41.078 61.3125L40.3593 60.7968L40.1718 61.375Z" fill="#007E62"/>
</g>
</g>
</svg>
