<svg width="30" height="30" viewBox="0 0 30 30" fill="none" xmlns="http://www.w3.org/2000/svg">
<path d="M24.4405 3.74629C24.1396 3.76819 23.8442 3.83879 23.5658 3.95535H23.5621C23.2949 4.06129 22.0246 4.59567 20.0933 5.40567L13.1727 8.32035C8.20677 10.411 3.32521 12.4697 3.32521 12.4697L3.38333 12.4472C3.38333 12.4472 3.04677 12.5579 2.69521 12.7988C2.47802 12.937 2.29112 13.1178 2.14584 13.3304C1.97334 13.5835 1.83459 13.9707 1.88615 14.371C1.97052 15.0479 2.40927 15.4538 2.72427 15.6779C3.04302 15.9047 3.34677 16.0107 3.34677 16.0107H3.35427L7.93209 17.5529C8.1374 18.2119 9.32708 22.1232 9.61302 23.0241C9.78177 23.5622 9.94583 23.8988 10.1511 24.1557C10.2505 24.2869 10.3668 24.3966 10.5065 24.4847C10.5791 24.527 10.6565 24.5603 10.7371 24.5841L10.6902 24.5729C10.7043 24.5766 10.7155 24.5879 10.7258 24.5916C10.7633 24.6019 10.7886 24.6057 10.8365 24.6132C11.5611 24.8325 12.1433 24.3825 12.1433 24.3825L12.1761 24.3563L14.879 21.8954L19.409 25.3707L19.5121 25.4147C20.4561 25.8291 21.4124 25.5985 21.9177 25.1916C22.4268 24.7819 22.6246 24.2579 22.6246 24.2579L22.6574 24.1735L26.158 6.24004C26.2574 5.79754 26.2827 5.38317 26.173 4.98098C26.0599 4.57394 25.7987 4.22386 25.4408 3.99942C25.1403 3.81671 24.7918 3.72852 24.4405 3.74629ZM24.3458 5.66817C24.3421 5.72723 24.3533 5.72067 24.3271 5.8341V5.84442L20.8593 23.5913C20.8443 23.6166 20.819 23.6719 20.7496 23.7272C20.6765 23.7854 20.6183 23.8219 20.3136 23.701L14.773 19.4532L11.4261 22.5038L12.1293 18.0132L21.1818 9.57567C21.5549 9.22879 21.4302 9.15567 21.4302 9.15567C21.4565 8.73004 20.8668 9.03098 20.8668 9.03098L9.45177 16.1025L9.44802 16.0838L3.97677 14.2416V14.2379L3.96271 14.235C3.9723 14.2319 3.98169 14.2281 3.99083 14.2238L4.02084 14.2088L4.0499 14.1985C4.0499 14.1985 8.93521 12.1397 13.9011 10.0491C16.3874 9.00192 18.8924 7.94723 20.819 7.13348C22.7455 6.32442 24.1696 5.73098 24.2502 5.6991C24.3271 5.6691 24.2905 5.6691 24.3458 5.6691V5.66817Z" fill="white"/>
</svg>
