<svg width="115" height="55" viewBox="0 0 115 55" fill="none" xmlns="http://www.w3.org/2000/svg">
<path d="M61.6523 14.6763C62.0808 14.6763 62.5287 14.7149 62.9961 14.7921C63.4635 14.8597 63.8286 14.9513 64.0915 15.0671C64.1792 15.0961 64.2327 15.1347 64.2522 15.1829C64.2814 15.2215 64.3058 15.2939 64.3252 15.4L64.5005 17.4119C64.5005 17.4408 64.4762 17.4601 64.4275 17.4698C64.3788 17.4794 64.3496 17.4649 64.3398 17.4263C64.0088 16.6641 63.5657 16.0755 63.0107 15.6606C62.4557 15.2456 61.813 15.0382 61.0827 15.0382C60.1187 15.0382 59.3738 15.3904 58.848 16.0948C58.3221 16.7991 58.0592 17.7448 58.0592 18.9316C58.0592 19.8193 58.2004 20.6299 58.4828 21.3632C58.7749 22.0965 59.179 22.6803 59.6951 23.1145C60.2209 23.5391 60.8149 23.7513 61.477 23.7513C62.1002 23.7513 62.6553 23.5487 63.1421 23.1434C63.6387 22.7285 64.0818 22.1013 64.4713 21.2619C64.481 21.2233 64.5102 21.2088 64.5589 21.2184C64.6174 21.2281 64.6466 21.2474 64.6466 21.2763L64.4275 23.2448C64.408 23.3606 64.3837 23.4377 64.3544 23.4763C64.335 23.5053 64.2814 23.5391 64.1938 23.5777C63.3272 23.8961 62.4362 24.0553 61.5209 24.0553C60.3329 24.0553 59.3397 23.8237 58.5412 23.3606C57.7428 22.8877 57.1536 22.2943 56.7739 21.5803C56.4039 20.8566 56.2189 20.104 56.2189 19.3224C56.2189 18.4057 56.4672 17.5952 56.9638 16.8908C57.4701 16.1864 58.1371 15.6413 58.9648 15.2553C59.8022 14.8693 60.6981 14.6763 61.6523 14.6763Z" fill="#00654E"/>
<path d="M72.5915 23.7079C72.6304 23.7079 72.6499 23.7369 72.6499 23.7948C72.6499 23.8527 72.6304 23.8816 72.5915 23.8816C72.3383 23.8816 72.1338 23.8768 71.978 23.8671L71.1309 23.8527L70.2545 23.8671C70.1084 23.8768 69.9088 23.8816 69.6557 23.8816C69.6362 23.8816 69.6264 23.8527 69.6264 23.7948C69.6264 23.7369 69.6362 23.7079 69.6557 23.7079C69.9575 23.7079 70.162 23.6404 70.2691 23.5053C70.386 23.3606 70.4444 23.0952 70.4444 22.7092V20.625C70.4444 20.104 70.347 19.718 70.1523 19.4671C69.9575 19.2163 69.6557 19.0908 69.2467 19.0908C69.013 19.0908 68.7696 19.1391 68.5164 19.2356C68.273 19.332 68.0587 19.4623 67.8737 19.6263V22.7092C67.8737 23.0952 67.9273 23.3606 68.0344 23.5053C68.1512 23.6404 68.3606 23.7079 68.6624 23.7079C68.7014 23.7079 68.7209 23.7369 68.7209 23.7948C68.7209 23.8527 68.7014 23.8816 68.6624 23.8816C68.4093 23.8816 68.2048 23.8768 68.049 23.8671L67.2018 23.8527L66.3255 23.8671C66.1794 23.8768 65.9798 23.8816 65.7266 23.8816C65.7071 23.8816 65.6974 23.8527 65.6974 23.7948C65.6974 23.7369 65.7071 23.7079 65.7266 23.7079C66.0285 23.7079 66.233 23.6404 66.3401 23.5053C66.4569 23.3606 66.5153 23.0952 66.5153 22.7092V15.3566C66.5153 15.0189 66.4813 14.7777 66.4131 14.6329C66.3547 14.4882 66.2476 14.4158 66.0918 14.4158C65.9555 14.4158 65.7704 14.4689 65.5367 14.575H65.5221C65.4929 14.575 65.4637 14.5509 65.4345 14.5027C65.415 14.4448 65.415 14.411 65.4345 14.4013L67.567 13.4027L67.64 13.3882C67.6887 13.3882 67.7374 13.4123 67.7861 13.4606C67.8445 13.4991 67.8737 13.5377 67.8737 13.5763V19.3079C68.5651 18.5167 69.3051 18.1211 70.0938 18.1211C70.6197 18.1211 71.0335 18.2899 71.3354 18.6277C71.647 18.9557 71.8028 19.3899 71.8028 19.9303V22.7092C71.8028 23.0952 71.8563 23.3606 71.9634 23.5053C72.0803 23.6404 72.2896 23.7079 72.5915 23.7079Z" fill="#00654E"/>
<path d="M77.3646 18.15C77.5886 18.15 77.8028 18.232 78.0073 18.3961C78.2215 18.5505 78.3286 18.7386 78.3286 18.9606C78.3286 19.1632 78.2653 19.332 78.1387 19.4671C78.0121 19.5926 77.8466 19.6553 77.6421 19.6553C77.496 19.6553 77.3743 19.6263 77.277 19.5684C77.1893 19.5106 77.0968 19.4237 76.9994 19.3079C76.9118 19.2114 76.8339 19.1439 76.7657 19.1053C76.7073 19.057 76.6343 19.0329 76.5467 19.0329C76.4493 19.0329 76.3422 19.0715 76.2253 19.1487C76.1182 19.2163 75.9478 19.3658 75.7141 19.5974V22.7092C75.7141 23.0952 75.8066 23.3606 75.9916 23.5053C76.1766 23.6404 76.5174 23.7079 77.014 23.7079C77.053 23.7079 77.0725 23.7369 77.0725 23.7948C77.0725 23.8527 77.053 23.8816 77.014 23.8816C76.6732 23.8816 76.4055 23.8768 76.2107 23.8671L75.0276 23.8527L74.1659 23.8671C74.0198 23.8768 73.8202 23.8816 73.567 23.8816C73.5378 23.8816 73.5232 23.8527 73.5232 23.7948C73.5232 23.7369 73.5378 23.7079 73.567 23.7079C73.8689 23.7079 74.0734 23.6404 74.1805 23.5053C74.2876 23.3606 74.3411 23.0952 74.3411 22.7092V19.9882C74.3411 19.6891 74.3022 19.472 74.2243 19.3369C74.1561 19.1921 74.0441 19.1198 73.8883 19.1198C73.7228 19.1198 73.4891 19.1873 73.1873 19.3224H73.158C73.1288 19.3224 73.1045 19.2983 73.085 19.25C73.0753 19.2018 73.0801 19.1728 73.0996 19.1632L75.1299 18.179C75.1883 18.1597 75.2224 18.15 75.2321 18.15C75.3392 18.15 75.4366 18.2513 75.5242 18.454C75.6216 18.647 75.68 18.9123 75.6995 19.25C76.0987 18.8448 76.4249 18.5601 76.6781 18.3961C76.941 18.232 77.1698 18.15 77.3646 18.15Z" fill="#00654E"/>
<path d="M79.2474 23.8816C79.2182 23.8816 79.2036 23.8527 79.2036 23.7948C79.2036 23.7369 79.2182 23.7079 79.2474 23.7079C79.5493 23.7079 79.7538 23.6404 79.8609 23.5053C79.968 23.3606 80.0215 23.0952 80.0215 22.7092V20.1184C80.0215 19.7904 79.9874 19.554 79.9193 19.4092C79.8511 19.2645 79.7391 19.1921 79.5833 19.1921C79.4568 19.1921 79.2766 19.2452 79.0429 19.3513H79.0283C78.9894 19.3513 78.9602 19.3272 78.9407 19.279C78.9212 19.2211 78.9261 19.1873 78.9553 19.1777L81.1608 18.1645L81.2046 18.15C81.2533 18.15 81.302 18.1741 81.3507 18.2224C81.3994 18.2706 81.4237 18.3141 81.4237 18.3527V18.6711C81.4042 19.057 81.3945 19.5299 81.3945 20.0895V22.7092C81.3945 23.0952 81.4481 23.3606 81.5552 23.5053C81.672 23.6404 81.8814 23.7079 82.1832 23.7079C82.2124 23.7079 82.227 23.7369 82.227 23.7948C82.227 23.8527 82.2124 23.8816 82.1832 23.8816C81.9301 23.8816 81.7304 23.8768 81.5844 23.8671L80.708 23.8527L79.8463 23.8671C79.7002 23.8768 79.5006 23.8816 79.2474 23.8816ZM80.6496 16.7171C80.3672 16.7171 80.1481 16.6399 79.9923 16.4856C79.8365 16.3312 79.7586 16.1141 79.7586 15.8342C79.7586 15.5834 79.8365 15.3856 79.9923 15.2408C80.1579 15.0864 80.3769 15.0092 80.6496 15.0092C80.9222 15.0092 81.1316 15.0816 81.2777 15.2263C81.4237 15.3711 81.4967 15.5737 81.4967 15.8342C81.4967 16.1141 81.4237 16.3312 81.2777 16.4856C81.1316 16.6399 80.9222 16.7171 80.6496 16.7171Z" fill="#00654E"/>
<path d="M84.3843 18.9895C84.3843 19.2693 84.4817 19.5106 84.6764 19.7132C84.8809 19.9158 85.173 20.1281 85.5528 20.35C85.9228 20.5623 86.1955 20.7312 86.3707 20.8566C86.5557 20.9724 86.7213 21.1413 86.8673 21.3632C87.0134 21.5755 87.0864 21.836 87.0864 22.1448C87.0864 22.4728 87.0037 22.7816 86.8381 23.0711C86.6726 23.3606 86.4243 23.597 86.0932 23.7803C85.7621 23.954 85.3678 24.0408 84.9101 24.0408C84.3746 24.0408 83.8682 23.9106 83.3911 23.65C83.3327 23.5921 83.3034 23.5342 83.3034 23.4763L83.2742 22.0434C83.2742 22.0145 83.2986 22 83.3473 22C83.4057 21.9904 83.4398 21.9952 83.4495 22.0145C83.6053 22.497 83.8633 22.907 84.2236 23.2448C84.5839 23.5825 84.9491 23.7513 85.3191 23.7513C85.5236 23.7513 85.6842 23.6886 85.8011 23.5632C85.9277 23.4377 85.991 23.2544 85.991 23.0132C85.991 22.6562 85.8887 22.3763 85.6842 22.1737C85.4798 21.9614 85.1779 21.7443 84.7787 21.5224C84.4379 21.3391 84.1798 21.1895 84.0045 21.0737C83.8293 20.9579 83.6735 20.7939 83.5371 20.5816C83.4008 20.3693 83.3327 20.1088 83.3327 19.8C83.3327 19.2307 83.5371 18.8158 83.9461 18.5553C84.3551 18.2851 84.8566 18.15 85.4505 18.15C85.6745 18.15 85.8741 18.1645 86.0494 18.1934C86.2344 18.2224 86.4389 18.2803 86.6628 18.3671C86.7505 18.3961 86.7943 18.4491 86.7943 18.5263C86.7943 18.7676 86.7894 18.9557 86.7797 19.0908L86.7651 19.8145C86.7651 19.8434 86.7359 19.8579 86.6775 19.8579C86.619 19.8579 86.5898 19.8434 86.5898 19.8145C86.5898 19.6312 86.5119 19.4334 86.3561 19.2211C86.2003 18.9991 85.9958 18.811 85.7427 18.6566C85.4992 18.5022 85.2461 18.425 84.9832 18.425C84.5839 18.425 84.3843 18.6132 84.3843 18.9895Z" fill="#00654E"/>
<path d="M92.4602 22.8684C92.4992 22.8684 92.5284 22.8877 92.5478 22.9263C92.5771 22.9649 92.5771 22.9939 92.5478 23.0132C92.1876 23.3702 91.837 23.6356 91.4962 23.8092C91.1554 23.9733 90.7951 24.0553 90.4154 24.0553C89.9869 24.0553 89.6218 23.954 89.3199 23.7513C89.018 23.5487 88.8671 23.2062 88.8671 22.7237V19.5106C88.8671 19.2114 88.8136 19.004 88.7064 18.8882C88.5993 18.7724 88.4046 18.7145 88.1222 18.7145C88.1125 18.7145 88.0979 18.7 88.0784 18.6711C88.0686 18.6421 88.0638 18.6132 88.0638 18.5842C88.0638 18.5456 88.0686 18.5167 88.0784 18.4974C88.0881 18.4684 88.1027 18.454 88.1222 18.454C88.6188 18.4347 89.018 18.3285 89.3199 18.1356C89.6315 17.9426 89.8701 17.6483 90.0356 17.2527C90.0551 17.2141 90.094 17.1948 90.1525 17.1948C90.2206 17.1948 90.2547 17.2141 90.2547 17.2527V18.4106C90.8195 18.4009 91.4524 18.3575 92.1535 18.2803C92.173 18.2803 92.1924 18.3189 92.2119 18.3961C92.2411 18.4636 92.2557 18.5408 92.2557 18.6277C92.2557 18.7241 92.2363 18.8206 92.1973 18.9171C92.1681 19.004 92.134 19.0426 92.0951 19.0329C91.4621 18.8978 90.8487 18.8255 90.2547 18.8158V22.2461C90.2547 22.6127 90.3472 22.8829 90.5322 23.0566C90.727 23.2303 90.9801 23.3171 91.2917 23.3171C91.6812 23.3171 92.061 23.1724 92.431 22.8829L92.4602 22.8684Z" fill="#00654E"/>
<path d="M103.867 23.7079C103.906 23.7079 103.925 23.7369 103.925 23.7948C103.925 23.8527 103.906 23.8816 103.867 23.8816C103.613 23.8816 103.414 23.8768 103.268 23.8671L102.391 23.8527L101.544 23.8671C101.388 23.8768 101.184 23.8816 100.931 23.8816C100.902 23.8816 100.887 23.8527 100.887 23.7948C100.887 23.7369 100.902 23.7079 100.931 23.7079C101.233 23.7079 101.437 23.6404 101.544 23.5053C101.661 23.3606 101.72 23.0952 101.72 22.7092V20.625C101.72 20.104 101.627 19.718 101.442 19.4671C101.267 19.2163 100.994 19.0908 100.624 19.0908C100.371 19.0908 100.123 19.1439 99.8792 19.25C99.6358 19.3562 99.4264 19.5009 99.2511 19.6842V19.7711V22.7092C99.2511 23.0952 99.3047 23.3606 99.4118 23.5053C99.5286 23.6404 99.738 23.7079 100.04 23.7079C100.079 23.7079 100.098 23.7369 100.098 23.7948C100.098 23.8527 100.079 23.8816 100.04 23.8816C99.7867 23.8816 99.5871 23.8768 99.441 23.8671L98.5646 23.8527L97.7175 23.8671C97.5617 23.8768 97.3572 23.8816 97.104 23.8816C97.0748 23.8816 97.0602 23.8527 97.0602 23.7948C97.0602 23.7369 97.0748 23.7079 97.104 23.7079C97.4059 23.7079 97.6104 23.6404 97.7175 23.5053C97.8343 23.3606 97.8928 23.0952 97.8928 22.7092V20.625C97.8928 20.104 97.8003 19.718 97.6152 19.4671C97.44 19.2163 97.1673 19.0908 96.7973 19.0908C96.5636 19.0908 96.3299 19.1391 96.0962 19.2356C95.8723 19.3224 95.6726 19.4478 95.4974 19.6119V22.7092C95.4974 23.0952 95.5509 23.3606 95.658 23.5053C95.7749 23.6404 95.9842 23.7079 96.2861 23.7079C96.3153 23.7079 96.3299 23.7369 96.3299 23.7948C96.3299 23.8527 96.3153 23.8816 96.2861 23.8816C96.0329 23.8816 95.8333 23.8768 95.6872 23.8671L94.8109 23.8527L93.9491 23.8671C93.8031 23.8768 93.6034 23.8816 93.3503 23.8816C93.3211 23.8816 93.3065 23.8527 93.3065 23.7948C93.3065 23.7369 93.3211 23.7079 93.3503 23.7079C93.6521 23.7079 93.8566 23.6404 93.9637 23.5053C94.0708 23.3606 94.1244 23.0952 94.1244 22.7092V19.9882C94.1244 19.6891 94.0854 19.472 94.0075 19.3369C93.9394 19.1921 93.8274 19.1198 93.6716 19.1198C93.5061 19.1198 93.2724 19.1873 92.9705 19.3224H92.9413C92.9121 19.3224 92.8877 19.2983 92.8683 19.25C92.8585 19.2018 92.8634 19.1728 92.8829 19.1632L94.9131 18.179C94.9715 18.1597 95.0056 18.15 95.0154 18.15C95.1225 18.15 95.2247 18.2562 95.3221 18.4684C95.4195 18.6711 95.4779 18.9461 95.4974 19.2934C96.1595 18.5119 96.8703 18.1211 97.6299 18.1211C98.0875 18.1211 98.4527 18.232 98.7253 18.454C98.998 18.6759 99.1635 18.9943 99.2219 19.4092C99.8938 18.5505 100.639 18.1211 101.457 18.1211C101.982 18.1211 102.382 18.2706 102.654 18.5698C102.937 18.8689 103.078 19.3224 103.078 19.9303V22.7092C103.078 23.0952 103.131 23.3606 103.239 23.5053C103.355 23.6404 103.565 23.7079 103.867 23.7079Z" fill="#00654E"/>
<path d="M110.401 23.1C110.44 23.1 110.464 23.1241 110.474 23.1724C110.493 23.211 110.483 23.2399 110.444 23.2592L108.94 23.9684C108.901 23.9877 108.852 23.9974 108.794 23.9974C108.648 23.9974 108.502 23.925 108.356 23.7803C108.219 23.6356 108.122 23.4377 108.064 23.1869L107.392 23.5487C107.139 23.6741 106.876 23.7803 106.603 23.8671C106.33 23.9443 106.087 23.9829 105.873 23.9829C105.561 23.9829 105.313 23.9057 105.128 23.7513C104.953 23.5873 104.865 23.3557 104.865 23.0566C104.865 22.8347 104.918 22.6562 105.026 22.5211C105.142 22.386 105.303 22.275 105.508 22.1882C105.722 22.0917 106.058 21.9663 106.515 21.8119L108.005 21.3342V20.1908C108.005 19.6119 107.947 19.1873 107.83 18.9171C107.713 18.6373 107.523 18.4974 107.26 18.4974C107.027 18.4974 106.842 18.5842 106.705 18.7579C106.569 18.9316 106.486 19.2163 106.457 19.6119C106.399 20.1522 106.111 20.4224 105.595 20.4224C105.138 20.4224 104.909 20.2246 104.909 19.829C104.909 19.5684 105.074 19.3079 105.405 19.0474C105.736 18.7869 106.136 18.5746 106.603 18.4106C107.07 18.2465 107.479 18.1645 107.83 18.1645C108.288 18.1645 108.658 18.2996 108.94 18.5698C109.232 18.8399 109.378 19.2356 109.378 19.7566V22.3184C109.378 22.5983 109.427 22.8154 109.524 22.9698C109.631 23.1241 109.777 23.2013 109.962 23.2013C110.099 23.2013 110.24 23.1676 110.386 23.1H110.401ZM108.02 22.9553C108.01 22.8877 108.005 22.7864 108.005 22.6513V21.5803L107.202 21.8698C106.939 21.9663 106.749 22.0724 106.632 22.1882C106.525 22.304 106.472 22.4439 106.472 22.6079C106.472 22.8106 106.53 22.9698 106.647 23.0856C106.764 23.2013 106.91 23.2592 107.085 23.2592C107.299 23.2592 107.548 23.1917 107.83 23.0566L108.02 22.9553Z" fill="#00654E"/>
<path d="M112.298 18.9895C112.298 19.2693 112.395 19.5106 112.59 19.7132C112.795 19.9158 113.087 20.1281 113.466 20.35C113.836 20.5623 114.109 20.7312 114.284 20.8566C114.469 20.9724 114.635 21.1413 114.781 21.3632C114.927 21.5755 115 21.836 115 22.1448C115 22.4728 114.917 22.7816 114.752 23.0711C114.586 23.3606 114.338 23.597 114.007 23.7803C113.676 23.954 113.281 24.0408 112.824 24.0408C112.288 24.0408 111.782 23.9106 111.305 23.65C111.246 23.5921 111.217 23.5342 111.217 23.4763L111.188 22.0434C111.188 22.0145 111.212 22 111.261 22C111.319 21.9904 111.353 21.9952 111.363 22.0145C111.519 22.497 111.777 22.907 112.137 23.2448C112.498 23.5825 112.863 23.7513 113.233 23.7513C113.437 23.7513 113.598 23.6886 113.715 23.5632C113.841 23.4377 113.905 23.2544 113.905 23.0132C113.905 22.6562 113.802 22.3763 113.598 22.1737C113.393 21.9614 113.091 21.7443 112.692 21.5224C112.351 21.3391 112.093 21.1895 111.918 21.0737C111.743 20.9579 111.587 20.7939 111.451 20.5816C111.314 20.3693 111.246 20.1088 111.246 19.8C111.246 19.2307 111.451 18.8158 111.86 18.5553C112.269 18.2851 112.77 18.15 113.364 18.15C113.588 18.15 113.788 18.1645 113.963 18.1934C114.148 18.2224 114.352 18.2803 114.576 18.3671C114.664 18.3961 114.708 18.4491 114.708 18.5263C114.708 18.7676 114.703 18.9557 114.693 19.0908L114.679 19.8145C114.679 19.8434 114.649 19.8579 114.591 19.8579C114.533 19.8579 114.503 19.8434 114.503 19.8145C114.503 19.6312 114.426 19.4334 114.27 19.2211C114.114 18.9991 113.909 18.811 113.656 18.6566C113.413 18.5022 113.16 18.425 112.897 18.425C112.498 18.425 112.298 18.6132 112.298 18.9895Z" fill="#00654E"/>
<path d="M58.7457 31.0895C57.587 31.0895 56.7544 31.8373 56.2481 33.3329C56.2383 33.3619 56.2091 33.3763 56.1604 33.3763C56.1117 33.3667 56.0874 33.3474 56.0874 33.3184C56.1264 32.9325 56.1702 32.4356 56.2189 31.8277C56.2675 31.2101 56.2919 30.747 56.2919 30.4382C56.2919 30.3899 56.3162 30.3658 56.3649 30.3658C56.4233 30.3658 56.4526 30.3899 56.4526 30.4382C56.4526 30.6505 56.7301 30.7566 57.2851 30.7566C58.1225 30.7856 59.1011 30.8 60.2209 30.8C60.7954 30.8 61.404 30.7904 62.0467 30.7711L63.0399 30.7566C63.4099 30.7566 63.6777 30.7325 63.8432 30.6842C64.0185 30.636 64.1305 30.5395 64.1792 30.3948C64.1889 30.3562 64.2181 30.3369 64.2668 30.3369C64.3252 30.3369 64.3544 30.3562 64.3544 30.3948C64.3252 30.6842 64.2912 31.1474 64.2522 31.7842C64.223 32.4211 64.2084 32.9325 64.2084 33.3184C64.2084 33.3474 64.184 33.3619 64.1354 33.3619C64.0867 33.3619 64.0575 33.3474 64.0477 33.3184C63.9017 32.5755 63.629 32.0206 63.2298 31.654C62.8305 31.2777 62.3388 31.0895 61.7546 31.0895C61.4722 31.0895 61.2823 31.1522 61.1849 31.2777C61.0973 31.3934 61.0535 31.6202 61.0535 31.9579V38.6303C61.0535 38.9294 61.0827 39.1465 61.1411 39.2816C61.1995 39.4167 61.3115 39.5084 61.477 39.5566C61.6426 39.6049 61.9055 39.629 62.2658 39.629C62.295 39.629 62.3096 39.6579 62.3096 39.7158C62.3096 39.7737 62.295 39.8027 62.2658 39.8027C61.9152 39.8027 61.6377 39.7978 61.4332 39.7882L60.2209 39.7737L59.0378 39.7882C58.8333 39.7978 58.551 39.8027 58.1907 39.8027C58.1615 39.8027 58.1469 39.7737 58.1469 39.7158C58.1469 39.6579 58.1615 39.629 58.1907 39.629C58.5412 39.629 58.7993 39.6049 58.9648 39.5566C59.1401 39.5084 59.2569 39.4167 59.3153 39.2816C59.3835 39.1369 59.4176 38.9198 59.4176 38.6303V31.929C59.4176 31.6009 59.3738 31.379 59.2861 31.2632C59.1985 31.1474 59.0184 31.0895 58.7457 31.0895Z" fill="#00654E"/>
<path d="M68.2038 34.0711C68.4278 34.0711 68.642 34.1531 68.8465 34.3171C69.0607 34.4715 69.1678 34.6597 69.1678 34.8816C69.1678 35.0842 69.1045 35.2531 68.978 35.3882C68.8514 35.5136 68.6858 35.5763 68.4814 35.5763C68.3353 35.5763 68.2136 35.5474 68.1162 35.4895C68.0286 35.4316 67.9361 35.3448 67.8387 35.229C67.751 35.1325 67.6731 35.0649 67.605 35.0263C67.5466 34.9781 67.4735 34.954 67.3859 34.954C67.2885 34.954 67.1814 34.9926 67.0646 35.0698C66.9574 35.1373 66.787 35.2869 66.5533 35.5184V38.6303C66.5533 39.0163 66.6459 39.2816 66.8309 39.4263C67.0159 39.5614 67.3567 39.629 67.8533 39.629C67.8922 39.629 67.9117 39.6579 67.9117 39.7158C67.9117 39.7737 67.8922 39.8027 67.8533 39.8027C67.5125 39.8027 67.2447 39.7978 67.05 39.7882L65.8669 39.7737L65.0051 39.7882C64.859 39.7978 64.6594 39.8027 64.4063 39.8027C64.377 39.8027 64.3624 39.7737 64.3624 39.7158C64.3624 39.6579 64.377 39.629 64.4063 39.629C64.7081 39.629 64.9126 39.5614 65.0197 39.4263C65.1268 39.2816 65.1804 39.0163 65.1804 38.6303V35.9092C65.1804 35.6101 65.1414 35.393 65.0635 35.2579C64.9954 35.1132 64.8834 35.0408 64.7276 35.0408C64.5621 35.0408 64.3284 35.1084 64.0265 35.2434H63.9973C63.9681 35.2434 63.9437 35.2193 63.9243 35.1711C63.9145 35.1228 63.9194 35.0939 63.9389 35.0842L65.9691 34.1C66.0275 34.0807 66.0616 34.0711 66.0713 34.0711C66.1785 34.0711 66.2758 34.1724 66.3635 34.375C66.4608 34.568 66.5193 34.8334 66.5387 35.1711C66.938 34.7658 67.2642 34.4812 67.5174 34.3171C67.7803 34.1531 68.0091 34.0711 68.2038 34.0711Z" fill="#00654E"/>
<path d="M75.013 38.8474C75.0325 38.8474 75.052 38.8667 75.0714 38.9053C75.1006 38.9439 75.1055 38.9728 75.086 38.9921C74.7258 39.3395 74.3606 39.5904 73.9906 39.7448C73.6206 39.8991 73.2165 39.9763 72.7783 39.9763C72.1648 39.9763 71.6341 39.8509 71.1862 39.6C70.7383 39.3395 70.3975 38.997 70.1638 38.5724C69.9301 38.1382 69.8132 37.675 69.8132 37.1829C69.8132 36.6233 69.9593 36.107 70.2514 35.6342C70.5435 35.1518 70.9428 34.7755 71.4491 34.5053C71.9555 34.2255 72.5202 34.0856 73.1434 34.0856C73.7472 34.0856 74.2097 34.2158 74.531 34.4763C74.8523 34.7272 75.013 35.0746 75.013 35.5184C75.013 35.7983 74.9595 35.9382 74.8523 35.9382H73.9614L71.3323 35.9671C71.3031 36.1505 71.2885 36.3531 71.2885 36.575C71.2885 37.4049 71.4832 38.061 71.8727 38.5434C72.2719 39.0259 72.8172 39.2671 73.5086 39.2671C73.752 39.2671 74.0052 39.2334 74.2681 39.1658C74.531 39.0983 74.7696 38.997 74.9838 38.8619L75.013 38.8474ZM72.603 34.375C72.3109 34.375 72.0577 34.4908 71.8435 34.7224C71.6293 34.954 71.4735 35.2724 71.3761 35.6777L73.4502 35.6342C73.4209 34.7948 73.1386 34.375 72.603 34.375Z" fill="#00654E"/>
<path d="M81.1784 38.8474C81.1979 38.8474 81.2173 38.8667 81.2368 38.9053C81.266 38.9439 81.2709 38.9728 81.2514 38.9921C80.8911 39.3395 80.526 39.5904 80.156 39.7448C79.7859 39.8991 79.3818 39.9763 78.9436 39.9763C78.3302 39.9763 77.7995 39.8509 77.3516 39.6C76.9037 39.3395 76.5629 38.997 76.3292 38.5724C76.0955 38.1382 75.9786 37.675 75.9786 37.1829C75.9786 36.6233 76.1247 36.107 76.4168 35.6342C76.7089 35.1518 77.1082 34.7755 77.6145 34.5053C78.1208 34.2255 78.6856 34.0856 79.3088 34.0856C79.9125 34.0856 80.375 34.2158 80.6964 34.4763C81.0177 34.7272 81.1784 35.0746 81.1784 35.5184C81.1784 35.7983 81.1248 35.9382 81.0177 35.9382H80.1267L77.4976 35.9671C77.4684 36.1505 77.4538 36.3531 77.4538 36.575C77.4538 37.4049 77.6486 38.061 78.0381 38.5434C78.4373 39.0259 78.9826 39.2671 79.674 39.2671C79.9174 39.2671 80.1706 39.2334 80.4335 39.1658C80.6964 39.0983 80.9349 38.997 81.1492 38.8619L81.1784 38.8474ZM78.7684 34.375C78.4763 34.375 78.2231 34.4908 78.0089 34.7224C77.7946 34.954 77.6388 35.2724 77.5415 35.6777L79.6155 35.6342C79.5863 34.7948 79.3039 34.375 78.7684 34.375Z" fill="#00654E"/>
<path d="M83.4857 34.9106C83.4857 35.1904 83.5831 35.4316 83.7778 35.6342C83.9823 35.8369 84.2744 36.0491 84.6542 36.2711C85.0242 36.4834 85.2968 36.6522 85.4721 36.7777C85.6571 36.8934 85.8227 37.0623 85.9687 37.2842C86.1148 37.4965 86.1878 37.757 86.1878 38.0658C86.1878 38.3939 86.105 38.7027 85.9395 38.9921C85.774 39.2816 85.5257 39.518 85.1946 39.7013C84.8635 39.875 84.4692 39.9619 84.0115 39.9619C83.4759 39.9619 82.9696 39.8316 82.4925 39.5711C82.434 39.5132 82.4048 39.4553 82.4048 39.3974L82.3756 37.9645C82.3756 37.9356 82.4 37.9211 82.4487 37.9211C82.5071 37.9114 82.5412 37.9163 82.5509 37.9356C82.7067 38.418 82.9647 38.8281 83.325 39.1658C83.6853 39.5035 84.0505 39.6724 84.4205 39.6724C84.625 39.6724 84.7856 39.6097 84.9025 39.4842C85.0291 39.3588 85.0924 39.1755 85.0924 38.9342C85.0924 38.5772 84.9901 38.2974 84.7856 38.0948C84.5811 37.8825 84.2793 37.6654 83.88 37.4434C83.5392 37.2601 83.2812 37.1106 83.1059 36.9948C82.9307 36.879 82.7749 36.7149 82.6385 36.5027C82.5022 36.2904 82.434 36.0299 82.434 35.7211C82.434 35.1518 82.6385 34.7369 83.0475 34.4763C83.4565 34.2062 83.9579 34.0711 84.5519 34.0711C84.7759 34.0711 84.9755 34.0856 85.1508 34.1145C85.3358 34.1434 85.5403 34.2013 85.7642 34.2882C85.8519 34.3171 85.8957 34.3702 85.8957 34.4474C85.8957 34.6886 85.8908 34.8768 85.8811 35.0119L85.8665 35.7356C85.8665 35.7645 85.8373 35.779 85.7788 35.779C85.7204 35.779 85.6912 35.7645 85.6912 35.7356C85.6912 35.5522 85.6133 35.3544 85.4575 35.1421C85.3017 34.9202 85.0972 34.732 84.844 34.5777C84.6006 34.4233 84.3474 34.3461 84.0845 34.3461C83.6853 34.3461 83.4857 34.5342 83.4857 34.9106Z" fill="#00654E"/>
<g clip-path="url(#clip0_103_21)">
<path fill-rule="evenodd" clip-rule="evenodd" d="M26.1573 -0.0537109C26.4796 -0.0537109 26.8018 -0.0537109 27.1241 -0.0537109C26.079 1.85713 25.0585 3.79072 24.0626 5.74707C23.0848 7.70241 22.2254 9.70762 21.4844 11.7627C20.8721 13.3197 20.6215 14.931 20.7325 16.5967C20.8395 17.2046 21.1796 17.6164 21.753 17.832C26.412 18.2147 31.0669 18.161 35.7178 17.6709C36.5672 18.6898 37.3908 19.7281 38.1885 20.7861C38.1381 20.9143 38.0306 20.9859 37.8663 21.001C32.9501 21.7721 28.0087 22.0584 23.0421 21.8604C21.3372 25.7177 19.6184 29.5669 17.8858 33.4082C18.337 33.555 18.8024 33.6088 19.2823 33.5693C19.9054 31.4673 20.6037 29.3904 21.377 27.3389C21.9307 29.5164 22.4498 31.7006 22.9346 33.8916C28.5471 34.1405 34.133 33.8899 39.6924 33.1396C40.5469 34.2808 41.442 35.3908 42.378 36.4697C39.3354 37.1097 36.2559 37.5215 33.1397 37.7051C28.7339 37.9324 24.3296 37.9144 19.9268 37.6514C19.7836 37.6871 19.6403 37.723 19.4971 37.7588C18.0017 39.4234 16.8021 41.2854 15.8985 43.3447C15.2205 44.7712 15.2563 46.1677 16.0059 47.5342C16.6179 48.2064 17.3519 48.6719 18.2081 48.9307C15.9038 48.7761 13.6121 48.5075 11.3331 48.125C9.52458 48.0315 8.14601 47.2259 7.19733 45.708C6.6417 44.2533 6.89235 42.9642 7.94928 41.8408C10.379 39.0041 12.7961 36.1575 15.2003 33.3008C14.1611 33.0853 13.1226 32.8346 12.085 32.5488C9.75922 31.2528 9.41906 29.552 11.0645 27.4463C13.8084 24.2372 16.5119 20.9966 19.1749 17.7246C18.3236 17.5416 17.4642 17.3984 16.5967 17.2949C14.6956 16.9736 13.8899 15.8816 14.1798 14.0186C17.6222 9.82435 21.0239 5.5991 24.3848 1.34277C24.8748 0.725022 25.4656 0.259527 26.1573 -0.0537109Z" fill="#3DAD52"/>
<path opacity="0.993" fill-rule="evenodd" clip-rule="evenodd" d="M27.1239 -0.0537109C27.661 -0.0537109 28.1982 -0.0537109 28.7353 -0.0537109C29.285 0.153541 29.7684 0.475807 30.1855 0.913086C33.6174 5.3048 37.1264 9.63749 40.7128 13.9111C41.1555 15.4428 40.6363 16.499 39.1552 17.0801C38.0217 17.352 36.8758 17.5489 35.7177 17.6709C31.0667 18.161 26.4118 18.2147 21.7528 17.832C21.1794 17.6164 20.8393 17.2046 20.7323 16.5967C20.6214 14.931 20.872 13.3197 21.4843 11.7627C22.2253 9.70762 23.0847 7.70241 24.0624 5.74707C25.0583 3.79072 26.0788 1.85713 27.1239 -0.0537109Z" fill="#4CC067"/>
<path opacity="0.995" fill-rule="evenodd" clip-rule="evenodd" d="M38.1885 20.7861C40.2813 23.2492 42.376 25.7199 44.4727 28.1982C45.2856 29.834 44.9454 31.1767 43.4521 32.2266C42.2688 32.806 41.0156 33.1103 39.6924 33.1396C34.133 33.8899 28.547 34.1405 22.9346 33.8916C22.4498 31.7006 21.9306 29.5164 21.377 27.3389C20.6036 29.3904 19.9054 31.4673 19.2822 33.5693C18.8024 33.6088 18.3369 33.555 17.8857 33.4082C19.6183 29.5669 21.3371 25.7177 23.042 21.8604C28.0086 22.0584 32.95 21.7721 37.8662 21.001C38.0306 20.9859 38.138 20.9143 38.1885 20.7861Z" fill="#4CC067"/>
<path opacity="0.992" fill-rule="evenodd" clip-rule="evenodd" d="M42.378 36.4697C44.0563 38.4886 45.7571 40.4939 47.4806 42.4854C48.5135 44.5167 48.0659 46.146 46.1378 47.373C45.0927 47.8535 44.0005 48.158 42.8614 48.2861C41.4239 46.5266 40.0274 44.7362 38.672 42.915C38.6183 44.8841 38.6003 46.8536 38.6183 48.8232C36.5457 49.0258 34.4689 49.169 32.3878 49.2529C29.0926 49.3818 25.7983 49.3818 22.505 49.2529C21.0507 49.2259 19.6184 49.1184 18.2081 48.9307C17.3519 48.6719 16.6179 48.2064 16.006 47.5342C15.2564 46.1677 15.2205 44.7712 15.8985 43.3447C16.8022 41.2855 18.0017 39.4234 19.4972 37.7588C19.6404 37.723 19.7837 37.6871 19.9268 37.6514C24.3296 37.9144 28.7339 37.9324 33.1397 37.7051C36.2559 37.5215 39.3354 37.1097 42.378 36.4697Z" fill="#4DC067"/>
<path opacity="0.98" fill-rule="evenodd" clip-rule="evenodd" d="M22.5049 49.2529C25.7982 49.3818 29.0925 49.3818 32.3877 49.2529C32.5498 49.8848 32.6572 50.5293 32.71 51.1865C30.5802 51.2936 28.4318 51.3294 26.2646 51.2939C26.2646 52.4756 26.2646 53.6572 26.2646 54.8389C24.7318 54.686 23.2637 54.2921 21.8604 53.6572C21.8246 53.5856 21.7887 53.514 21.7529 53.4424C22.0154 52.0468 22.266 50.6503 22.5049 49.2529Z" fill="#7F4A26"/>
<path fill-rule="evenodd" clip-rule="evenodd" d="M32.71 51.1865C32.8743 51.8837 33.0176 52.5998 33.1396 53.335C33.1039 53.4424 33.068 53.5498 33.0322 53.6572C30.8786 54.619 28.6228 55.0128 26.2646 54.8389C26.2646 53.6572 26.2646 52.4756 26.2646 51.2939C28.4318 51.3294 30.5802 51.2936 32.71 51.1865Z" fill="#925C34"/>
</g>
<defs>
<clipPath id="clip0_103_21">
<rect width="55" height="55" fill="white"/>
</clipPath>
</defs>
</svg>
