<svg width="127" height="55" viewBox="0 0 127 55" fill="none" xmlns="http://www.w3.org/2000/svg">
<path d="M61.3587 17.7958C58.5869 17.7958 56.5955 19.5801 55.3843 23.1486C55.361 23.2177 55.2911 23.2523 55.1747 23.2523C55.0582 23.2292 55 23.1832 55 23.1141C55.0932 22.1932 55.198 21.0075 55.3144 19.5571C55.4309 18.0836 55.4891 16.9785 55.4891 16.2417C55.4891 16.1266 55.5474 16.0691 55.6638 16.0691C55.8036 16.0691 55.8734 16.1266 55.8734 16.2417C55.8734 16.7482 56.5373 17.0015 57.8649 17.0015C59.868 17.0706 62.2088 17.1051 64.8874 17.1051C66.2616 17.1051 67.7173 17.0821 69.2546 17.036L71.6303 17.0015C72.5154 17.0015 73.1559 16.9439 73.5519 16.8288C73.9712 16.7137 74.239 16.4835 74.3555 16.1381C74.3788 16.046 74.4486 16 74.5651 16C74.7048 16 74.7747 16.046 74.7747 16.1381C74.7048 16.8288 74.6233 17.9339 74.5302 19.4535C74.4603 20.973 74.4253 22.1932 74.4253 23.1141C74.4253 23.1832 74.3671 23.2177 74.2507 23.2177C74.1342 23.2177 74.0643 23.1832 74.041 23.1141C73.6917 21.3413 73.0395 20.0175 72.0845 19.1426C71.1296 18.2447 69.9533 17.7958 68.5558 17.7958C67.8804 17.7958 67.4262 17.9454 67.1932 18.2447C66.9836 18.521 66.8788 19.0621 66.8788 19.8679V35.7883C66.8788 36.502 66.9487 37.02 67.0884 37.3423C67.2282 37.6647 67.496 37.8834 67.892 37.9985C68.288 38.1136 68.9168 38.1712 69.7786 38.1712C69.8485 38.1712 69.8835 38.2402 69.8835 38.3784C69.8835 38.5165 69.8485 38.5856 69.7786 38.5856C68.9401 38.5856 68.2763 38.5741 67.7872 38.551L64.8874 38.5165L62.0574 38.551C61.5683 38.5741 60.8928 38.5856 60.031 38.5856C59.9611 38.5856 59.9262 38.5165 59.9262 38.3784C59.9262 38.2402 59.9611 38.1712 60.031 38.1712C60.8695 38.1712 61.4868 38.1136 61.8827 37.9985C62.302 37.8834 62.5815 37.6647 62.7212 37.3423C62.8843 36.997 62.9658 36.479 62.9658 35.7883V19.7988C62.9658 19.016 62.861 18.4865 62.6514 18.2102C62.4417 17.9339 62.0108 17.7958 61.3587 17.7958Z" fill="#00654E"/>
<path d="M83.9824 24.9099C84.5182 24.9099 85.0306 25.1056 85.5197 25.497C86.0321 25.8654 86.2883 26.3143 86.2883 26.8438C86.2883 27.3273 86.1369 27.7302 85.8341 28.0526C85.5313 28.3518 85.1354 28.5015 84.6463 28.5015C84.2969 28.5015 84.0057 28.4324 83.7728 28.2943C83.5632 28.1562 83.3419 27.9489 83.109 27.6727C82.8994 27.4424 82.713 27.2813 82.55 27.1892C82.4102 27.0741 82.2356 27.0165 82.0259 27.0165C81.793 27.0165 81.5368 27.1086 81.2573 27.2928C81.0011 27.4539 80.5935 27.8108 80.0345 28.3634V35.7883C80.0345 36.7092 80.2558 37.3423 80.6983 37.6877C81.1408 38.01 81.9561 38.1712 83.1439 38.1712C83.2371 38.1712 83.2837 38.2402 83.2837 38.3784C83.2837 38.5165 83.2371 38.5856 83.1439 38.5856C82.3287 38.5856 81.6882 38.5741 81.2224 38.551L78.3924 38.5165L76.3311 38.551C75.9817 38.5741 75.5042 38.5856 74.8986 38.5856C74.8288 38.5856 74.7938 38.5165 74.7938 38.3784C74.7938 38.2402 74.8288 38.1712 74.8986 38.1712C75.6207 38.1712 76.1098 38.01 76.366 37.6877C76.6222 37.3423 76.7503 36.7092 76.7503 35.7883V29.2958C76.7503 28.5821 76.6572 28.0641 76.4708 27.7417C76.3078 27.3964 76.0399 27.2237 75.6673 27.2237C75.2713 27.2237 74.7123 27.3849 73.9903 27.7072H73.9204C73.8505 27.7072 73.7923 27.6496 73.7457 27.5345C73.7224 27.4194 73.7341 27.3503 73.7806 27.3273L78.637 24.979C78.7767 24.9329 78.8582 24.9099 78.8815 24.9099C79.1377 24.9099 79.3707 25.1516 79.5803 25.6351C79.8132 26.0956 79.953 26.7287 79.9995 27.5345C80.9545 26.5676 81.7348 25.8884 82.3404 25.497C82.9692 25.1056 83.5166 24.9099 83.9824 24.9099Z" fill="#00654E"/>
<path d="M100.27 36.3063C100.317 36.3063 100.363 36.3523 100.41 36.4444C100.48 36.5365 100.491 36.6056 100.445 36.6517C99.5828 37.4805 98.7094 38.0791 97.8243 38.4474C96.9392 38.8158 95.9726 39 94.9245 39C93.4571 39 92.1877 38.7007 91.1163 38.1021C90.0449 37.4805 89.2296 36.6632 88.6706 35.6501C88.1116 34.6141 87.8321 33.509 87.8321 32.3348C87.8321 30.9995 88.1815 29.7678 88.8803 28.6396C89.579 27.4885 90.534 26.5906 91.7452 25.9459C92.9563 25.2783 94.3072 24.9444 95.7979 24.9444C97.242 24.9444 98.3484 25.2553 99.117 25.8769C99.8856 26.4755 100.27 27.3043 100.27 28.3634C100.27 29.031 100.142 29.3649 99.8856 29.3649H97.7544L91.4656 29.4339C91.3958 29.8714 91.3608 30.3549 91.3608 30.8844C91.3608 32.8644 91.8267 34.4299 92.7583 35.5811C93.7133 36.7322 95.0176 37.3078 96.6714 37.3078C97.2537 37.3078 97.8592 37.2272 98.4881 37.0661C99.117 36.9049 99.6876 36.6632 100.2 36.3408L100.27 36.3063ZM94.5052 25.6351C93.8065 25.6351 93.2009 25.9114 92.6885 26.464C92.176 27.0165 91.8034 27.7763 91.5705 28.7432L96.5316 28.6396C96.4617 26.6366 95.7863 25.6351 94.5052 25.6351Z" fill="#00654E"/>
<path d="M115.017 36.3063C115.064 36.3063 115.111 36.3523 115.157 36.4444C115.227 36.5365 115.239 36.6056 115.192 36.6517C114.33 37.4805 113.457 38.0791 112.572 38.4474C111.687 38.8158 110.72 39 109.672 39C108.205 39 106.935 38.7007 105.864 38.1021C104.792 37.4805 103.977 36.6632 103.418 35.6501C102.859 34.6141 102.58 33.509 102.58 32.3348C102.58 30.9995 102.929 29.7678 103.628 28.6396C104.327 27.4885 105.282 26.5906 106.493 25.9459C107.704 25.2783 109.055 24.9444 110.545 24.9444C111.99 24.9444 113.096 25.2553 113.865 25.8769C114.633 26.4755 115.017 27.3043 115.017 28.3634C115.017 29.031 114.889 29.3649 114.633 29.3649H112.502L106.213 29.4339C106.143 29.8714 106.108 30.3549 106.108 30.8844C106.108 32.8644 106.574 34.4299 107.506 35.5811C108.461 36.7322 109.765 37.3078 111.419 37.3078C112.001 37.3078 112.607 37.2272 113.236 37.0661C113.865 36.9049 114.435 36.6632 114.948 36.3408L115.017 36.3063ZM109.253 25.6351C108.554 25.6351 107.948 25.9114 107.436 26.464C106.924 27.0165 106.551 27.7763 106.318 28.7432L111.279 28.6396C111.209 26.6366 110.534 25.6351 109.253 25.6351Z" fill="#00654E"/>
<path d="M120.537 26.9129C120.537 27.5806 120.769 28.1561 121.235 28.6396C121.724 29.1231 122.423 29.6296 123.332 30.1592C124.217 30.6657 124.869 31.0686 125.288 31.3679C125.731 31.6441 126.127 32.047 126.476 32.5766C126.825 33.0831 127 33.7047 127 34.4414C127 35.2242 126.802 35.961 126.406 36.6517C126.01 37.3423 125.416 37.9064 124.624 38.3438C123.832 38.7583 122.889 38.9655 121.794 38.9655C120.513 38.9655 119.302 38.6546 118.161 38.033C118.021 37.8949 117.951 37.7567 117.951 37.6186L117.881 34.1997C117.881 34.1306 117.939 34.0961 118.056 34.0961C118.196 34.0731 118.277 34.0846 118.301 34.1306C118.673 35.2818 119.29 36.2603 120.152 37.0661C121.014 37.8719 121.887 38.2748 122.773 38.2748C123.262 38.2748 123.646 38.1251 123.925 37.8258C124.228 37.5265 124.38 37.0891 124.38 36.5135C124.38 35.6617 124.135 34.994 123.646 34.5105C123.157 34.004 122.435 33.486 121.48 32.9565C120.665 32.519 120.047 32.1622 119.628 31.8859C119.209 31.6096 118.836 31.2182 118.51 30.7117C118.184 30.2052 118.021 29.5836 118.021 28.8468C118.021 27.4885 118.51 26.4985 119.488 25.8769C120.467 25.2322 121.666 24.9099 123.087 24.9099C123.623 24.9099 124.1 24.9444 124.519 25.0135C124.962 25.0826 125.451 25.2207 125.987 25.4279C126.196 25.497 126.301 25.6236 126.301 25.8078C126.301 26.3834 126.29 26.8323 126.266 27.1547L126.231 28.8814C126.231 28.9504 126.161 28.985 126.022 28.985C125.882 28.985 125.812 28.9504 125.812 28.8814C125.812 28.4439 125.626 27.972 125.253 27.4655C124.88 26.9359 124.391 26.487 123.786 26.1186C123.203 25.7502 122.598 25.5661 121.969 25.5661C121.014 25.5661 120.537 26.015 120.537 26.9129Z" fill="#00654E"/>
<g clip-path="url(#clip0_55_339)">
<path fill-rule="evenodd" clip-rule="evenodd" d="M26.1573 -0.0537109C26.4796 -0.0537109 26.8018 -0.0537109 27.1241 -0.0537109C26.079 1.85713 25.0585 3.79072 24.0626 5.74707C23.0848 7.70241 22.2254 9.70762 21.4844 11.7627C20.8721 13.3197 20.6215 14.931 20.7325 16.5967C20.8395 17.2046 21.1796 17.6164 21.753 17.832C26.412 18.2147 31.0669 18.161 35.7178 17.6709C36.5672 18.6898 37.3908 19.7281 38.1885 20.7861C38.1381 20.9143 38.0306 20.9859 37.8663 21.001C32.9501 21.7721 28.0087 22.0584 23.0421 21.8604C21.3372 25.7177 19.6184 29.5669 17.8858 33.4082C18.337 33.555 18.8024 33.6088 19.2823 33.5693C19.9054 31.4673 20.6037 29.3904 21.377 27.3389C21.9307 29.5164 22.4498 31.7006 22.9346 33.8916C28.5471 34.1405 34.133 33.8899 39.6924 33.1396C40.5469 34.2808 41.442 35.3908 42.378 36.4697C39.3354 37.1097 36.2559 37.5215 33.1397 37.7051C28.7339 37.9324 24.3296 37.9144 19.9268 37.6514C19.7836 37.6871 19.6403 37.723 19.4971 37.7588C18.0017 39.4234 16.8021 41.2854 15.8985 43.3447C15.2205 44.7712 15.2563 46.1677 16.0059 47.5342C16.6179 48.2064 17.3519 48.6719 18.2081 48.9307C15.9038 48.7761 13.6121 48.5075 11.3331 48.125C9.52458 48.0315 8.14601 47.2259 7.19733 45.708C6.6417 44.2533 6.89235 42.9642 7.94928 41.8408C10.379 39.0041 12.7961 36.1575 15.2003 33.3008C14.1611 33.0853 13.1226 32.8346 12.085 32.5488C9.75922 31.2528 9.41906 29.552 11.0645 27.4463C13.8084 24.2372 16.5119 20.9966 19.1749 17.7246C18.3236 17.5416 17.4642 17.3984 16.5967 17.2949C14.6956 16.9736 13.8899 15.8816 14.1798 14.0186C17.6222 9.82435 21.0239 5.5991 24.3848 1.34277C24.8748 0.725022 25.4656 0.259527 26.1573 -0.0537109Z" fill="#3DAD52"/>
<path opacity="0.993" fill-rule="evenodd" clip-rule="evenodd" d="M27.1239 -0.0537109C27.661 -0.0537109 28.1982 -0.0537109 28.7353 -0.0537109C29.285 0.153541 29.7684 0.475807 30.1855 0.913086C33.6174 5.3048 37.1264 9.63749 40.7128 13.9111C41.1555 15.4428 40.6363 16.499 39.1552 17.0801C38.0217 17.352 36.8758 17.5489 35.7177 17.6709C31.0667 18.161 26.4118 18.2147 21.7528 17.832C21.1794 17.6164 20.8393 17.2046 20.7323 16.5967C20.6214 14.931 20.872 13.3197 21.4843 11.7627C22.2253 9.70762 23.0847 7.70241 24.0624 5.74707C25.0583 3.79072 26.0788 1.85713 27.1239 -0.0537109Z" fill="#4CC067"/>
<path opacity="0.995" fill-rule="evenodd" clip-rule="evenodd" d="M38.1885 20.7861C40.2813 23.2492 42.376 25.7199 44.4727 28.1982C45.2856 29.834 44.9454 31.1767 43.4521 32.2266C42.2688 32.806 41.0156 33.1103 39.6924 33.1396C34.133 33.8899 28.547 34.1405 22.9346 33.8916C22.4498 31.7006 21.9306 29.5164 21.377 27.3389C20.6036 29.3904 19.9054 31.4673 19.2822 33.5693C18.8024 33.6088 18.3369 33.555 17.8857 33.4082C19.6183 29.5669 21.3371 25.7177 23.042 21.8604C28.0086 22.0584 32.95 21.7721 37.8662 21.001C38.0306 20.9859 38.138 20.9143 38.1885 20.7861Z" fill="#4CC067"/>
<path opacity="0.992" fill-rule="evenodd" clip-rule="evenodd" d="M42.378 36.4697C44.0563 38.4886 45.7571 40.4939 47.4806 42.4854C48.5135 44.5167 48.0659 46.146 46.1378 47.373C45.0927 47.8535 44.0005 48.158 42.8614 48.2861C41.4239 46.5266 40.0274 44.7362 38.672 42.915C38.6183 44.8841 38.6003 46.8536 38.6183 48.8232C36.5457 49.0258 34.4689 49.169 32.3878 49.2529C29.0926 49.3818 25.7983 49.3818 22.505 49.2529C21.0507 49.2259 19.6184 49.1184 18.2081 48.9307C17.3519 48.6719 16.6179 48.2064 16.006 47.5342C15.2564 46.1677 15.2205 44.7712 15.8985 43.3447C16.8022 41.2855 18.0017 39.4234 19.4972 37.7588C19.6404 37.723 19.7837 37.6871 19.9268 37.6514C24.3296 37.9144 28.7339 37.9324 33.1397 37.7051C36.2559 37.5215 39.3354 37.1097 42.378 36.4697Z" fill="#4DC067"/>
<path opacity="0.98" fill-rule="evenodd" clip-rule="evenodd" d="M22.5049 49.2529C25.7982 49.3818 29.0925 49.3818 32.3877 49.2529C32.5498 49.8848 32.6572 50.5293 32.71 51.1865C30.5802 51.2936 28.4318 51.3294 26.2646 51.2939C26.2646 52.4756 26.2646 53.6572 26.2646 54.8389C24.7318 54.686 23.2637 54.2921 21.8604 53.6572C21.8246 53.5856 21.7887 53.514 21.7529 53.4424C22.0154 52.0468 22.266 50.6503 22.5049 49.2529Z" fill="#7F4A26"/>
<path fill-rule="evenodd" clip-rule="evenodd" d="M32.71 51.1865C32.8743 51.8837 33.0176 52.5998 33.1396 53.335C33.1039 53.4424 33.068 53.5498 33.0322 53.6572C30.8786 54.619 28.6228 55.0128 26.2646 54.8389C26.2646 53.6572 26.2646 52.4756 26.2646 51.2939C28.4318 51.3294 30.5802 51.2936 32.71 51.1865Z" fill="#925C34"/>
</g>
<defs>
<clipPath id="clip0_55_339">
<rect width="55" height="55" fill="white"/>
</clipPath>
</defs>
</svg>
