<svg width="128" height="34" viewBox="0 0 128 34" fill="none" xmlns="http://www.w3.org/2000/svg">
<g clip-path="url(#clip0_55_386)">
<path d="M37.4197 15.9041L37.9118 14.3221L36.2836 14.3733C36.1461 14.3733 35.1463 14.3448 34.1763 13.6385C34.2486 13.6456 34.3208 13.6555 34.3947 13.6555C35.3931 13.6555 36.3588 13.0517 36.7461 12.1887L37.4467 10.6294C36.5688 10.6408 35.766 10.5297 35.766 10.5297C35.7589 10.5282 35.1264 10.4471 34.3947 9.69659C33.8698 9.15832 33.2204 8.87343 32.5169 8.87343C32.2092 8.87343 31.934 8.92897 31.6972 9.00447C31.734 8.87775 31.7695 8.74955 31.7894 8.61709C32.0134 7.15743 31.0774 6.04378 31.0774 6.04528L29.8535 4.52293L29.0948 6.31153C29.0919 6.31725 28.9004 6.73598 28.5572 6.94099C28.4537 6.41549 28.1999 5.82453 27.6567 5.25915C26.6327 4.19392 25.3861 4.03584 24.7338 4.03584C24.4316 4.03584 24.2161 4.06862 24.1635 4.07714L22.6859 4.36915C22.7709 4.03734 22.9524 3.46052 23.2843 2.94074L24.0998 1.6648L22.0477 1.89977L21.3938 0.505545L20.1288 1.16065L18.9588 0L17.7915 1.16065L16.5223 0.505545L15.8698 1.89977L13.8191 1.6648L14.636 2.94074C14.9678 3.46052 15.1494 4.03584 15.2331 4.36765L13.8233 4.08856L13.7751 4.08004C13.7042 4.06862 13.4901 4.03584 13.1866 4.03584C12.5342 4.03584 11.2876 4.19533 10.2664 5.25915C9.72181 5.82313 9.46799 6.41549 9.36306 6.94099C9.02273 6.73879 8.83263 6.32577 8.83263 6.32577L8.07251 4.52714L6.82877 6.05952C6.67694 6.2574 5.92677 7.30419 6.13095 8.61999C6.15227 8.75103 6.18628 8.87917 6.22318 9.00596C5.98776 8.93045 5.71258 8.87492 5.40488 8.87492C4.70142 8.87492 4.0519 9.15974 3.52574 9.69807C2.79669 10.4457 2.16701 10.5297 2.17276 10.5297C2.17276 10.5297 1.50757 10.6493 0.477965 10.6307L1.17429 12.1902C1.56152 13.0547 2.52866 13.657 3.52574 13.657C3.60091 13.657 3.67319 13.647 3.74698 13.6399C2.77974 14.3462 1.77988 14.3747 1.65929 14.3761L0 14.3221L0.502061 15.9027C0.754525 16.7174 1.59831 18.0674 3.21516 18.2126C3.03925 18.9532 2.64924 19.782 1.79267 20.1394L0.557392 20.6506L1.23101 21.8284C1.61111 22.4635 2.50317 23.2068 3.77385 23.2068C4.04903 23.2054 4.31419 23.1784 4.56953 23.1243C4.63478 23.4148 4.71699 23.7054 4.81348 23.9929C5.19208 25.1237 4.86593 25.9126 4.86167 25.9212L4.25182 27.2042L5.61333 27.5646C5.63038 27.5702 6.04161 27.6827 6.55646 27.6827C6.79048 27.6827 7.01308 27.6586 7.223 27.6088C7.3818 27.5717 7.53364 27.5219 7.67965 27.462C7.85554 27.7796 8.0697 28.0687 8.3193 28.3278C9.19153 29.2265 10.4268 29.6821 11.9925 29.6821H11.9982L13.1157 29.6679L10.8068 30.6306L12.5598 31.4808C13.1965 31.7927 13.9524 32.1614 14.7211 32.4434L14.5027 33.0445L15.1069 33.3207C15.1607 33.3449 16.3223 33.8675 18.2539 33.9786C18.2539 33.9786 18.7205 34 18.9771 34C19.2338 34 19.6948 33.9773 19.6948 33.9773C21.6137 33.8633 22.7666 33.3464 22.8206 33.3207L23.4261 33.043L23.2049 32.4407C23.9963 32.1501 24.779 31.767 25.3889 31.468L27.1092 30.6292L24.8074 29.6651L25.9293 29.6794C27.4964 29.6794 28.7331 29.2236 29.6038 28.3236C29.8521 28.0659 30.0663 27.7768 30.2435 27.4592C30.3897 27.519 30.5427 27.5688 30.7016 27.6059C30.91 27.6557 31.1328 27.68 31.3668 27.68C31.873 27.68 32.2886 27.5675 32.2999 27.5646L33.6671 27.2015L33.0714 25.9426C33.0572 25.9098 32.7311 25.1222 33.1097 23.9901C33.2061 23.701 33.287 23.4106 33.3522 23.1214C33.609 23.1755 33.877 23.204 34.1536 23.204C35.7716 23.204 36.5474 22.0605 36.6978 21.8127L37.3644 20.6478L36.1291 20.138C35.2711 19.7805 34.8825 18.9503 34.708 18.2112C36.3021 18.0745 37.1587 16.7245 37.4197 15.9041ZM15.3408 4.91309L15.3239 4.9174L15.3381 4.89886L15.3408 4.91309Z" fill="white"/>
<path d="M18.9605 4.84351C17.6529 4.84491 16.673 5.27497 16.4587 5.78052L18.9605 6.77175L21.4622 5.78052C21.2495 5.27497 20.2695 4.84491 18.9605 4.84351Z" fill="white"/>
<path d="M18.9856 31.0815H18.9827H18.9614H18.9373H18.9359C18.1431 31.0873 17.0525 30.9234 16.5263 30.7697L15.8938 32.4885C16.3108 32.6381 17.7234 32.9228 18.9614 32.9228C20.1967 32.9228 21.6107 32.6367 22.0262 32.4885L21.3951 30.7697C20.8676 30.9248 19.7783 31.0873 18.9856 31.0815Z" fill="white"/>
<path d="M23.7727 29.3723C23.3018 29.6401 22.2509 30.0416 21.6396 30.2282L22.1531 31.648C23.0989 31.3887 23.8789 31.0855 24.5244 30.7608L23.4591 30.4047L23.7727 29.3723Z" fill="white"/>
<path d="M14.1494 29.3723L14.4642 30.4047L13.3977 30.7608C14.0416 31.0855 14.8258 31.3887 15.7675 31.648L16.2809 30.2282C15.6725 30.0416 14.6202 29.6386 14.1494 29.3723Z" fill="white"/>
<path d="M18.9605 3.19994C19.9462 3.19994 20.9134 3.43633 21.6565 3.85225C21.7246 3.62289 21.8196 3.3452 21.9487 3.05469L21.6679 3.08887L21.3729 3.12024L21.2481 2.85108L20.8722 2.05362L20.1872 2.41241L19.9206 2.54914L19.7079 2.33842L18.9633 1.5979L18.2202 2.33842L18.0075 2.54914L17.7409 2.41241L17.0516 2.05362L16.68 2.85108L16.5524 3.12024L16.2574 3.08887L15.9766 3.05469C16.1057 3.34661 16.1992 3.62289 16.2687 3.85225C17.0133 3.43633 17.9777 3.19994 18.9605 3.19994Z" fill="white"/>
<path d="M34.0091 12.417C34.1368 12.4611 34.2672 12.481 34.3963 12.481C34.9536 12.481 35.4925 12.1194 35.6783 11.7049C35.6783 11.7049 34.6558 11.6423 33.5566 10.5215C33.2065 10.1583 32.8363 10.0502 32.5186 10.0502C32.025 10.0502 31.6548 10.3122 31.6548 10.3122C32.9823 11.0214 33.2531 12.1607 34.0091 12.417Z" fill="white"/>
<path d="M3.52483 12.481C3.65384 12.481 3.78434 12.4611 3.90918 12.417C4.66788 12.1607 4.94019 11.0214 6.26768 10.3122C6.26768 10.3122 5.89602 10.0502 5.40536 10.0502C5.08625 10.0502 4.71608 10.1583 4.36435 10.5215C3.26671 11.6423 2.24414 11.7049 2.24414 11.7049C2.4271 12.1194 2.96744 12.481 3.52483 12.481Z" fill="white"/>
<path d="M34.3696 17.0463C34.3923 17.0477 34.4122 17.0477 34.4363 17.0477C35.8275 17.0477 36.2999 15.5509 36.2999 15.5509H36.2729C36.0176 15.5509 33.9484 15.4912 32.4862 13.6242C31.5233 12.3967 30.7347 11.3172 29.176 10.8928L29.0229 10.8657L28.9889 10.7091C28.9463 10.4698 29.1094 10.2463 29.4797 10.0041C31.6296 8.5901 30.1702 6.78718 30.1702 6.78718C30.1702 6.78718 29.5562 8.22977 28.1819 8.22977C28.1493 8.22977 28.1138 8.22829 28.0798 8.22829C27.9239 8.21979 27.7735 8.21405 27.6217 8.1814L27.3679 8.13146C27.3679 8.13146 27.7593 7.06206 26.8148 6.07944C26.1028 5.33752 25.2363 5.2122 24.7356 5.2122C24.4831 5.2122 24.3229 5.24489 24.3229 5.24489C24.798 5.86862 25.1412 6.90256 24.5924 7.5405C24.1188 8.08875 22.9614 8.1158 22.9614 8.93322C22.9614 9.27931 23.2834 9.68377 23.862 10.0469C25.6022 11.1477 27.3295 12.6073 28.0472 14.5641C28.9449 17.005 27.9337 18.6242 26.49 19.5527C26.49 19.5527 26.9424 19.9713 27.5991 20.024C27.7324 20.0368 27.8628 20.0425 27.9849 20.0425C29.3704 20.0425 30.0866 19.3903 30.0866 19.3903C30.0866 19.3903 29.9689 20.2917 29.247 21.1291C28.5819 21.9024 27.7083 22.3567 26.3765 22.3766C26.3765 22.3766 26.3339 22.9975 26.9239 23.5344C27.3012 23.8733 28.1734 23.9844 28.1734 23.9844C28.1734 23.9844 26.541 24.3162 26.3609 26.7372C26.263 28.0487 25.9298 28.5044 25.9298 28.5044H25.9596C29.7476 28.5044 29.6498 25.2419 29.6498 25.2419C29.6498 25.2419 29.9135 26.2073 30.9701 26.4594C31.0977 26.4937 31.2339 26.5065 31.3643 26.5065C31.7048 26.5065 31.9997 26.4267 31.9997 26.4267C31.9997 26.4267 31.4466 25.2547 31.9955 23.6156C32.4507 22.2556 32.377 21.2473 32.377 21.2473C32.377 21.2473 32.8875 22.022 34.1527 22.0292H34.1654C35.2192 22.0292 35.6786 21.2274 35.6786 21.2274C33.1528 20.175 33.4024 16.7772 33.4024 16.7772C33.4024 16.7772 33.73 17.022 34.3696 17.0463ZM33.6094 20.595C32.5826 20.0867 31.9331 18.7367 31.7757 18.2496C31.6054 20.9269 30.3036 22.7853 28.7818 24.5739C27.9918 25.501 27.7168 26.4024 27.7168 26.4024C27.7168 26.4024 27.8685 25.3814 28.552 24.5498C29.9717 22.8365 31.3205 20.7047 31.4212 18.2397C31.4906 16.5193 31.0495 15.1238 30.3617 13.9746C30.746 15.1722 30.6922 16.639 29.386 18.0075C29.386 18.0075 31.9856 14.8788 28.3507 11.6718C26.8956 10.4514 25.3043 9.69801 24.4847 9.164C27.4459 10.1338 28.8911 9.06568 28.8911 9.06568C27.9451 9.88876 26.7212 9.87453 25.9623 9.75637C26.168 9.85752 26.3823 9.96285 26.6134 10.0867C29.1094 11.4482 31.3531 13.6883 31.736 16.7914V16.7671C32.3175 19.8132 33.6094 20.595 33.6094 20.595Z" fill="white"/>
<path d="M9.74725 23.9844C9.74725 23.9844 10.6195 23.8747 10.9967 23.5344C11.5852 22.9975 11.5442 22.3766 11.5442 22.3766C10.2111 22.358 9.33885 21.9024 8.66945 21.1306C7.95322 20.2932 7.83408 19.3917 7.83408 19.3917C7.83408 19.3917 8.55024 20.044 9.93447 20.044C10.0593 20.044 10.1884 20.0383 10.3216 20.0254C10.9783 19.9727 11.4321 19.554 11.4321 19.554C9.98827 18.6256 8.97581 17.005 9.87209 14.5641C10.5911 12.6088 12.317 11.1477 14.0573 10.0469C14.6359 9.68377 14.9578 9.28066 14.9578 8.93322C14.9578 8.1158 13.802 8.08875 13.3282 7.5405C12.7795 6.90256 13.1241 5.86722 13.5977 5.24489C13.5977 5.24489 13.4403 5.2122 13.1864 5.2122C12.6872 5.2122 11.8207 5.33752 11.1088 6.07944C10.1614 7.06206 10.5543 8.13146 10.5543 8.13146L10.3004 8.1814C10.1487 8.21405 9.99685 8.21979 9.84227 8.22829C9.80689 8.22829 9.7756 8.22977 9.74163 8.22977C8.36457 8.22977 7.75327 6.78859 7.75327 6.78859C7.75327 6.78859 6.2939 8.59152 8.4425 10.0056C8.81271 10.2477 8.9744 10.4712 8.93185 10.7105L8.89774 10.8672L8.74175 10.8942C7.18599 11.3186 6.39605 12.398 5.43308 13.6256C3.97369 15.4898 1.90733 15.5509 1.64931 15.5509H1.62085C1.62085 15.5509 2.09316 17.0477 3.48442 17.0477C3.50713 17.0477 3.52696 17.0477 3.55106 17.0463C4.19066 17.0234 4.51968 16.7772 4.51968 16.7772C4.51968 16.7772 4.7665 20.1735 2.24349 21.2274C2.24349 21.2274 2.70301 22.0292 3.75672 22.0292H3.76951C5.03593 22.022 5.54513 21.2473 5.54513 21.2473C5.54513 21.2473 5.47135 22.2556 5.92522 23.6156C6.47399 25.2547 5.92374 26.4267 5.92374 26.4267C5.92374 26.4267 6.21874 26.5065 6.55769 26.5065C6.68957 26.5065 6.82434 26.4937 6.95057 26.4594C8.00561 26.2073 8.27089 25.2419 8.27089 25.2419C8.27089 25.2419 8.1744 28.5044 11.9626 28.5044H11.9894C11.9894 28.5044 11.6576 28.0487 11.5612 26.7372C11.3797 24.3162 9.74725 23.9844 9.74725 23.9844ZM9.1389 24.5739C7.61718 22.7853 6.31662 20.9269 6.14497 18.2496C5.9876 18.7353 5.34085 20.0867 4.31412 20.595C4.31412 20.595 5.60462 19.8132 6.18473 16.7671V16.7914C6.56908 13.6897 8.81131 11.4482 11.3087 10.0867C11.5371 9.96144 11.754 9.85611 11.9583 9.75637C11.1996 9.87453 9.97561 9.88876 9.02961 9.06568C9.02961 9.06568 10.4748 10.1338 13.4346 9.164C12.6149 9.69801 11.0251 10.4514 9.56995 11.6718C5.93365 14.8788 8.5347 18.0075 8.5347 18.0075C7.22713 16.6375 7.17466 15.1722 7.55895 13.9746C6.86974 15.1252 6.43006 16.5193 6.50096 18.2397C6.60023 20.7047 7.94892 22.8365 9.36579 24.5498C10.0509 25.38 10.2054 26.4024 10.2054 26.4024C10.2054 26.4024 9.9273 25.501 9.1389 24.5739Z" fill="white"/>
<path d="M16.1594 12.0562C16.2217 12.1231 16.2827 12.1958 16.3409 12.2683C16.3551 12.2855 16.3678 12.3011 16.382 12.3211C16.436 12.3936 16.4912 12.4706 16.5438 12.5489C16.555 12.5646 16.5664 12.5831 16.5792 12.6015C16.643 12.6984 16.7026 12.7982 16.7621 12.9007C17.3081 13.8476 18.1832 14.413 18.9589 14.4144C19.7361 14.413 20.6083 13.8476 21.1572 12.9007C21.2182 12.7953 21.2792 12.6928 21.3429 12.5974C21.3529 12.5831 21.3629 12.5703 21.3713 12.5561C21.4252 12.4749 21.482 12.3951 21.5415 12.3182C21.5543 12.3011 21.5656 12.2869 21.577 12.2727C21.638 12.1971 21.7004 12.1231 21.7642 12.0547C21.7755 12.0434 21.784 12.0334 21.7939 12.0249C22.0718 11.7386 22.4038 11.5207 22.8377 11.3997L22.6449 11.2872H22.6336L21.8648 10.8386L21.0749 10.3843L18.9646 11.5378L18.9589 11.5335L18.9547 11.5378L16.843 10.3843L16.0544 10.8371L15.2844 11.2857H15.2758L15.0801 11.3983C15.5155 11.5193 15.8459 11.7343 16.1253 12.0206C16.138 12.032 16.1466 12.0448 16.1594 12.0562ZM18.1051 11.9636H18.9986H19.8907V12.5788C19.6809 12.3211 19.2724 12.3738 19.2724 12.3738V13.261C19.2724 13.261 19.288 13.6968 19.4397 13.8861H18.9986H18.5561C18.7107 13.6982 18.7249 13.261 18.7249 13.261V12.3738C18.7249 12.3738 18.3178 12.3211 18.1051 12.5788V11.9636Z" fill="white"/>
<path d="M18.7775 10.77V7.16855L16.4941 6.39091L17.0969 9.8814L18.7775 10.77ZM18.2868 8.05291V8.63105L18.1761 8.57976C18.1705 8.57551 18.0088 8.53847 17.7251 8.31343C17.2571 7.94892 17.2487 7.61282 17.2487 7.61282L18.2868 8.05291Z" fill="white"/>
<path d="M20.8253 9.8814L21.4252 6.39091L19.1433 7.16855V10.77L20.8253 9.8814ZM19.6341 8.05291L20.6721 7.61424C20.6721 7.61424 20.6637 7.95034 20.1942 8.31485C19.912 8.53988 19.7488 8.57686 19.7432 8.58118L19.6325 8.63239V8.05291H19.6341Z" fill="white"/>
<path d="M15.5484 19.1204C15.7711 19.2015 16.0405 19.2186 16.1781 19.2186C16.1838 19.2015 16.1908 19.1801 16.198 19.1545C16.2106 19.1132 16.2221 19.0734 16.2307 19.0278C16.2689 18.8285 16.2831 18.602 16.2859 18.4568C16.1922 18.3983 16.0604 18.2943 15.9867 18.1391C15.9016 17.9597 15.7811 17.8771 15.6037 17.8771C15.374 17.8771 15.1272 18.0153 15.0222 18.0809C14.9387 18.5777 15.303 19.0292 15.5484 19.1204Z" fill="white"/>
<path d="M20.5986 17.2082C20.1745 17.671 19.3448 18.4771 19.3037 18.5184L19.2541 18.5697L16.6319 18.5283C16.6304 18.789 16.5878 19.0111 16.5467 19.1734C16.5397 19.2005 16.5326 19.229 16.5254 19.2575L19.6455 19.82C19.9703 19.5921 20.8637 18.937 21.2098 18.6807C20.9574 18.3105 20.9332 17.8718 20.9899 17.5628C20.8255 17.456 20.6992 17.3364 20.5986 17.2082Z" fill="white"/>
<path d="M20.9545 14.0416C20.3502 14.644 19.7702 14.8661 19.2526 14.9174C19.1589 14.9274 19.0639 14.933 18.9675 14.933H18.9603H18.9546C18.8583 14.933 18.7618 14.9274 18.6682 14.9174C18.5775 14.9089 18.4824 14.8946 18.3875 14.8733C18.3533 15.0085 18.3108 15.2919 18.4328 15.5597C18.542 15.8032 18.7647 15.984 19.0895 16.1037L19.1986 16.1464L19.2001 16.2646C19.2001 16.3002 19.2256 17.0664 20.0581 17.2785C20.1942 17.1376 20.3176 17.0108 20.4084 16.9054C20.2382 16.5038 20.3275 16.0937 20.5743 15.8929C20.563 15.9356 20.4552 16.9411 21.2579 17.3141L21.3898 17.3768L21.3501 17.5178C21.3373 17.5605 21.0692 18.5332 22.0408 18.8949L22.2124 18.9604L22.1357 19.1285C22.1188 19.1654 21.7373 20.0485 22.6351 20.5497H24.5821V18.9974C23.8902 18.9119 23.5965 18.3538 23.5214 17.9578C23.1995 17.9023 22.9499 17.7627 22.7796 17.5349C22.3711 16.9951 22.7229 16.501 22.7271 16.4739C22.7258 16.4782 22.7271 17.0051 23.0505 17.3298C23.2108 17.4864 23.4009 17.6075 23.6887 17.6346L23.8305 17.6474L23.8433 17.7927C23.8461 17.8239 23.9241 18.536 24.5835 18.6485L24.5821 15.4785C24.5821 14.9872 24.7255 14.4931 24.8971 14.0373H20.9545V14.0416Z" fill="white"/>
<path d="M15.7141 15.4932L15.6616 17.5126L15.8899 17.5468L16.4488 15.61L16.1651 15.0148L15.7141 15.4932Z" fill="white"/>
<path d="M21.8749 24.7546C21.8919 24.7546 21.9118 24.7575 21.9302 24.7617C22.2777 24.8614 22.3657 26.1203 22.9754 26.2328C23.035 26.2456 23.0904 26.2484 23.1386 26.2484C23.3144 26.2484 23.4194 26.1729 23.5328 26.0391C23.5328 26.0391 23.2264 25.5549 22.9967 25.2289C22.6919 24.8016 22.4551 24.2846 21.8877 24.2846C21.8749 24.2846 21.858 24.2846 21.8438 24.2861C21.6565 24.2961 21.5416 24.3871 21.5416 24.3871C21.3119 24.2419 21.0978 24.1921 20.9034 24.1921C20.5475 24.1921 20.271 24.3559 20.1333 24.3559H20.1277L18.8597 24.2306C18.6612 24.212 18.5053 24.0112 18.4485 23.933C18.4343 23.9115 18.4272 23.8987 18.4272 23.8987C18.4272 23.8645 18.4272 23.829 18.4244 23.7976C18.3819 22.7566 17.5792 22.3109 17.2941 22.3037C17.2941 22.3037 17.3281 22.1058 17.2502 22.0304L16.9708 22.3707L16.0532 21.9078L16.707 22.6755L16.1524 23.3006C16.0828 23.3719 16.0914 23.4687 16.1198 23.5085L16.3595 23.7207L16.663 23.5356C16.6785 23.5243 16.7055 23.5213 16.7395 23.5213C16.8233 23.5213 16.9495 23.5427 17.0629 23.5427C17.1863 23.5427 17.2941 23.5156 17.3069 23.3988C17.2686 23.7848 16.9126 24.4555 17.1466 24.9824L17.3197 25.3798L16.1992 25.2174L15.6744 26.1075C15.5128 26.4037 15.4873 26.7241 15.6433 26.8978L15.8389 27.1443C15.8389 27.1443 16.1141 26.8508 16.1765 26.6586L16.0871 26.5603C16.012 26.4777 16.0162 26.4037 16.0617 26.314L16.3907 25.7656L17.7139 26.079L17.7833 25.9594C17.8727 25.8098 18.0018 25.7642 18.1436 25.7642C18.2017 25.7642 18.2613 25.7714 18.3237 25.7814C18.5691 25.8298 18.9733 25.8953 19.3775 25.8953C19.8214 25.8953 20.261 25.8156 20.4949 25.5521C20.9743 26.2656 21.9458 26.3795 21.8692 26.7411L21.614 27.9631C21.7828 27.9559 21.9458 27.9445 22.1004 27.9231L22.343 26.6514C22.37 26.5133 22.3954 26.3267 22.3954 26.3267C22.3018 26.2314 22.0749 26.0291 21.9473 25.7842C21.7756 25.4538 21.8692 25.2815 21.709 24.8514C21.7146 24.8543 21.7629 24.7546 21.8749 24.7546ZM16.9254 22.9688C16.8601 22.9674 16.8133 22.9118 16.8161 22.8464C16.8219 22.7837 16.8743 22.7338 16.9381 22.7395C17.0033 22.7424 17.0502 22.7993 17.0473 22.862C17.0416 22.9246 16.9878 22.9731 16.9254 22.9688Z" fill="white"/>
<path d="M15.1186 25.9107C15.1186 25.9107 15.5567 25.7298 15.5964 25.6002L15.5383 25.4535C15.4971 25.3581 15.5028 25.2541 15.5822 25.1972L16.0559 24.8682L16.8473 25.0206C16.8473 25.0206 16.704 24.8412 16.7183 24.6005L15.9638 24.4395L15.2518 24.8753C14.9469 25.1046 14.9242 25.4791 15.0249 25.7012L15.1186 25.9107Z" fill="white"/>
<path d="M20.7119 27.9822C20.8537 27.9765 21.0097 27.9737 21.1814 27.9737C21.1814 27.9737 21.5884 26.7789 21.611 26.7405C21.3828 26.6394 20.909 26.3872 20.7261 26.2719C20.8467 26.4528 21.1402 26.6607 21.0821 26.8202L20.7119 27.9822Z" fill="white"/>
<path d="M24.5862 20.8951H13.3354V25.1446C13.3354 26.882 14.5878 27.97 16.4357 27.97C17.9802 27.97 18.3871 28.0297 18.9615 28.6023C19.3572 28.2064 19.6849 28.0582 20.3571 28.0027L20.3726 27.9372L20.7272 26.8364C20.7073 26.8122 20.1273 26.15 20.1273 26.15C19.8976 26.227 19.7047 26.2398 19.3799 26.2398C19.0466 26.2398 18.6709 26.2013 18.2638 26.1244C18.2227 26.1145 18.1844 26.1116 18.146 26.1116C18.0964 26.1116 18.0922 26.1158 18.0794 26.14L18.0085 26.2568L17.8794 26.4704L17.637 26.4149L16.5577 26.16L16.4101 26.405L16.4328 26.4305L16.5647 26.5758L16.5066 26.7652C16.4271 27.013 16.169 27.3021 16.0911 27.3819L15.8215 27.6724L15.5763 27.3605L15.3919 27.1284C15.1976 26.9105 15.1523 26.5758 15.2614 26.2255C15.2585 26.2283 15.2543 26.2297 15.2501 26.2297L14.9452 26.3565L14.8075 26.0574L14.7111 25.8453C14.5453 25.4722 14.6061 24.9267 15.053 24.5977L15.9224 24.105L16.7492 24.2688C16.769 24.189 16.7987 23.9042 16.8228 23.8317C16.8073 23.8302 16.7917 23.8259 16.776 23.8259L16.2996 24.0039L15.84 23.685C15.84 23.685 15.6599 23.5111 15.8229 23.3375L16.2683 22.6611L15.1408 21.2397L16.8739 21.9547L16.9889 21.8109L17.2228 21.5303L17.488 21.7838C17.5632 21.8564 17.6057 21.9461 17.627 22.0358C18.1049 22.2224 18.9601 22.7736 19.0352 23.6692L18.7672 23.7775V23.7846C18.8282 23.8572 18.8793 23.8872 18.8948 23.89L20.1315 24.0125C20.1628 24.0068 20.2025 23.9925 20.2465 23.9797C20.3996 23.9271 20.6308 23.8516 20.9045 23.8516C21.1272 23.8516 21.3426 23.9028 21.5497 23.9997C21.6263 23.9712 21.72 23.9498 21.8278 23.9427L21.8873 23.9413C22.5496 23.9413 22.8786 24.4382 23.1425 24.8342C23.1864 24.9025 23.2303 24.968 23.2758 25.0321C23.5069 25.3597 23.8089 25.8396 23.8217 25.8595L23.9579 26.0732L23.7905 26.2683C23.6615 26.4177 23.4686 26.593 23.1367 26.593C23.0687 26.593 22.9935 26.5858 22.9127 26.5701C22.8418 26.5573 22.778 26.5359 22.7156 26.5103C22.7057 26.5758 22.6929 26.6542 22.6801 26.721L22.4631 27.8575C23.7608 27.5371 24.5847 26.553 24.5847 25.146L24.5862 20.8951Z" fill="#FFDD2D"/>
<path d="M13.3354 20.5538H22.0844C21.6475 20.101 21.6533 19.5271 21.7653 19.154C21.6376 19.0927 21.5327 19.0186 21.4392 18.9389C21.0974 19.1924 20.0535 19.9557 19.7812 20.1465L19.7231 20.1864L16.2895 19.5627H16.2201C16.1378 19.5627 16.0173 19.5598 15.8854 19.5441C15.8485 19.6994 15.7152 19.8062 15.562 19.8062C15.545 19.8062 15.5251 19.8048 15.5067 19.8005C15.4173 19.7848 15.3395 19.7392 15.2869 19.6638C15.2331 19.5897 15.2118 19.5014 15.2274 19.4103L15.2401 19.3362C14.8856 19.0856 14.5594 18.5259 14.704 17.9363L14.7182 17.8737L14.7678 17.8381C14.7749 17.8324 14.8344 17.7925 14.9224 17.7413L14.6728 17.7028C14.5792 17.6857 14.5168 17.5988 14.5311 17.5063C14.5466 17.4123 14.6345 17.3453 14.7267 17.3639L15.321 17.4579L15.3748 15.3559L16.2598 14.416L16.8115 15.5824L16.2286 17.6046L16.7534 17.6871C16.8455 17.7014 16.9094 17.7882 16.8952 17.8836C16.8809 17.9676 16.8101 18.0261 16.7264 18.0261C16.7179 18.0261 16.7079 18.0261 16.6994 18.0247L16.2725 17.9549C16.2783 17.9676 16.2867 17.9747 16.2924 17.989C16.3378 18.083 16.4385 18.1514 16.498 18.1799L19.1162 18.2212C19.2267 18.1129 19.5019 17.8423 19.7841 17.5561C19.1402 17.3112 18.9062 16.7529 18.8664 16.3826C18.5063 16.2288 18.2581 15.9982 18.1205 15.6977C17.9531 15.3261 18.0127 14.9543 18.0567 14.7735C17.7078 14.6453 17.3406 14.4118 16.966 14.0387H13.0234C13.1922 14.4943 13.3354 14.9885 13.3354 15.4798V20.5538Z" fill="#FFDD2D"/>
<path d="M16.9396 22.7398C16.8756 22.734 16.8217 22.7838 16.8174 22.8465C16.8132 22.912 16.8614 22.9675 16.9268 22.9689C16.9891 22.9747 17.0446 22.9262 17.0502 22.8622C17.0502 22.7995 17.0049 22.7412 16.9396 22.7398Z" fill="#2C3F4D"/>
<path d="M24.5708 30.4447L23.9227 30.1954L24.1014 29.5233L24.2985 28.7899C24.2985 28.7899 23.1497 29.4151 21.5316 29.8851C21.0721 30.0175 20.7246 30.0773 20.7246 30.0773V30.5756C20.7246 30.5756 19.8595 30.7267 18.9845 30.7267H18.9745H18.9617H18.9447H18.9347C18.0598 30.7267 17.1946 30.5756 17.1946 30.5756V30.0773C17.1946 30.0773 16.8457 30.0175 16.3877 29.8851C14.7695 29.4151 13.6221 28.7899 13.6221 28.7899L13.8163 29.5233L13.9993 30.1954L13.3498 30.4447L12.6294 30.7152C13.4562 31.1154 14.6007 31.6993 15.6488 31.9869L15.402 32.6648C15.402 32.6648 16.7309 33.2729 18.9447 33.2786V33.2801H18.9519H18.9617H18.9703H18.9759V33.2786C21.1927 33.2729 22.52 32.6648 22.52 32.6648L22.2718 31.9869C23.3199 31.6993 24.4673 31.1154 25.2899 30.7152L24.5708 30.4447ZM13.398 30.7608L14.4645 30.4049L14.1497 29.3723C14.6191 29.6401 15.6729 30.0416 16.2827 30.2282L15.7679 31.648C14.8261 31.3875 14.0419 31.0841 13.398 30.7608ZM18.9617 32.9226C17.7236 32.9226 16.3096 32.6363 15.8942 32.4883L16.5266 30.7694C17.0514 30.9232 18.1435 31.0869 18.9361 31.0812H18.9376H18.9617H18.983H18.9859C19.7787 31.0869 20.8678 30.9232 21.3954 30.7694L22.0264 32.4883C21.611 32.6377 20.1984 32.9226 18.9617 32.9226ZM22.1527 31.648L21.6394 30.2282C22.2506 30.0416 23.3014 29.6401 23.7724 29.3723L23.4589 30.4049L24.524 30.7608C23.8787 31.0841 23.0986 31.3875 22.1527 31.648Z" fill="#2C3F4D"/>
<path d="M18.9606 3.61523C20.2795 3.61523 21.3346 4.05391 21.9175 4.52246C21.9175 4.52246 22.0905 3.47569 22.6819 2.55151L21.6196 2.67251L21.0638 1.48629L19.9958 2.03885L18.9606 1.01062L17.928 2.03885L16.8588 1.48629L16.3042 2.67251L15.2419 2.55151C15.8333 3.47569 16.0064 4.52246 16.0064 4.52246C16.5907 4.05391 17.643 3.61523 18.9606 3.61523ZM16.256 3.08834L16.551 3.11971L16.6786 2.85055L17.0501 2.05308L17.7394 2.41046L18.0061 2.5472L18.2189 2.33648L18.962 1.59596L19.7065 2.33648L19.9193 2.5472L20.1858 2.41046L20.8709 2.05308L21.2468 2.85055L21.3715 3.11971L21.6665 3.08834L21.9473 3.05415C21.8183 3.34616 21.7232 3.62235 21.6551 3.85171C20.9119 3.43589 19.9447 3.19941 18.9591 3.19941C17.9778 3.19941 17.0119 3.43589 16.2659 3.85171C16.1965 3.62235 16.1028 3.34466 15.9737 3.05415L16.256 3.08834Z" fill="#2C3F4D"/>
<path d="M34.4347 17.5041C36.1409 17.5041 36.711 15.7611 36.7351 15.687L36.9252 15.0731L36.2855 15.0931H36.2828C36.0572 15.0931 34.1752 15.0432 32.8407 13.34L32.7145 13.182C31.8423 12.0684 31.0154 11.0103 29.5377 10.5275C29.5802 10.4891 29.6412 10.4406 29.7249 10.3865C30.5091 9.86815 30.9658 9.23865 31.0806 8.50815C31.248 7.40874 30.5503 6.53294 30.5191 6.49735L30.044 5.90779L29.7476 6.60702C29.7278 6.65113 29.2284 7.77049 28.179 7.77049H28.101C28.0287 7.76617 27.9606 7.76334 27.8925 7.7576C27.9294 7.2578 27.8386 6.48452 27.1409 5.75964C26.3026 4.88669 25.2731 4.75566 24.7342 4.75566C24.4462 4.75566 24.2548 4.79125 24.2349 4.79416L23.5174 4.93651L23.9598 5.52185C24.3073 5.97326 24.6221 6.80641 24.2491 7.24214C24.1299 7.38027 23.8847 7.49275 23.6492 7.60524C23.1656 7.82879 22.5061 8.13925 22.5061 8.93109C22.5061 9.44379 22.9018 9.97922 23.6194 10.4349C25.744 11.7764 27.0543 13.1763 27.6203 14.7214C28.4953 17.0982 27.3536 18.4539 26.2445 19.1674L25.7467 19.4892L26.1822 19.8908C26.2403 19.9421 26.7736 20.4135 27.5606 20.4819C27.7095 20.4918 27.8528 20.5003 27.9861 20.5003C28.491 20.5003 28.9208 20.4206 29.2696 20.3137C29.1731 20.4832 29.0554 20.6556 28.9065 20.8293C28.2726 21.5669 27.4926 21.9031 26.3708 21.9202L25.9538 21.9273L25.9212 22.3474C25.9169 22.4314 25.8858 23.2104 26.6203 23.8726C26.7324 23.975 26.8686 24.0592 27.0104 24.129C26.5126 24.579 26.0062 25.3622 25.9085 26.7051C25.8262 27.8258 25.5595 28.2403 25.5567 28.2444L25.0959 28.9508L25.9283 28.9623C27.304 28.9623 28.3577 28.5806 29.088 27.8258C29.5192 27.3786 29.766 26.8745 29.9121 26.4274C30.1518 26.6324 30.461 26.8118 30.8637 26.9072C31.0168 26.9429 31.1843 26.9628 31.3643 26.9628C31.753 26.9628 32.0778 26.8802 32.1146 26.8717L32.6464 26.7292L32.411 26.2308C32.394 26.191 31.9501 25.1912 32.4279 23.7643C32.6336 23.1477 32.7386 22.5951 32.7896 22.1651C33.1243 22.3402 33.5725 22.4855 34.1525 22.4869C35.4686 22.4869 36.0487 21.5 36.0756 21.4587L36.3352 21.0058L35.8545 20.8065C34.2858 20.1529 33.9385 18.3969 33.8689 17.4457C34.0107 17.4727 34.1725 17.4984 34.3553 17.5041H34.4347ZM35.6785 21.2266C35.6785 21.2266 35.219 22.0284 34.1653 22.0284H34.1525C32.8875 22.0212 32.3769 21.2465 32.3769 21.2465C32.3769 21.2465 32.4506 22.2548 31.9941 23.6148C31.4451 25.2539 31.9982 26.426 31.9982 26.426C31.9982 26.426 31.7033 26.5057 31.3629 26.5057C31.2324 26.5057 31.0963 26.4929 30.9687 26.4587C29.9121 26.2066 29.6484 25.2411 29.6484 25.2411C29.6484 25.2411 29.7461 28.5037 25.9581 28.5037H25.9283C25.9283 28.5037 26.2616 28.0479 26.3609 26.7363C26.5409 24.3155 28.1734 23.9837 28.1734 23.9837C28.1734 23.9837 27.3025 23.874 26.9253 23.5337C26.3353 22.9968 26.3764 22.3758 26.3764 22.3758C27.7095 22.3573 28.5818 21.9017 29.2469 21.1284C29.9674 20.291 30.0865 19.3896 30.0865 19.3896C30.0865 19.3896 29.3703 20.0418 27.9848 20.0418C27.8628 20.0418 27.7322 20.0361 27.599 20.0232C26.9437 19.9706 26.4899 19.5518 26.4899 19.5518C27.9322 18.6234 28.9449 17.0028 28.0472 14.5618C27.328 12.6066 25.6007 11.1456 23.862 10.0447C23.2833 9.68157 22.9613 9.2786 22.9613 8.93109C22.9613 8.11368 24.1187 8.08804 24.5938 7.5383C25.1411 6.90035 24.7979 5.86509 24.3229 5.24276C24.3229 5.24276 24.4831 5.20998 24.7356 5.20998C25.2362 5.20998 26.1028 5.33669 26.8146 6.07722C27.7606 7.05983 27.3677 8.12933 27.3677 8.12933L27.6217 8.1792C27.7734 8.21192 27.9237 8.21766 28.0797 8.22474C28.1137 8.22474 28.1478 8.22616 28.1818 8.22616C29.5561 8.22616 30.1702 6.78356 30.1702 6.78356C30.1702 6.78356 31.631 8.58791 29.4809 10.0005C29.1108 10.2426 28.9476 10.4662 28.9902 10.7055L29.0243 10.8622L29.1774 10.8892C30.7361 11.3136 31.5246 12.3931 32.4876 13.6205C33.9497 15.4876 36.019 15.5474 36.2742 15.5474H36.3012C36.3012 15.5474 35.8289 17.0441 34.4376 17.0441C34.4149 17.0441 34.3951 17.0441 34.3709 17.0427C33.7313 17.0198 33.4038 16.7735 33.4038 16.7735C33.4038 16.7735 33.1527 20.1728 35.6785 21.2266Z" fill="#2C3F4D"/>
<path d="M31.4377 10.716C32.0744 11.0562 32.4446 11.512 32.7694 11.9164C33.0885 12.3108 33.3921 12.6911 33.8656 12.8492C34.0344 12.9076 34.2131 12.9347 34.3947 12.9347C35.1066 12.9347 35.8215 12.4974 36.0922 11.8922L36.3645 11.2855L35.7051 11.2456C35.6739 11.2442 34.8258 11.1673 33.8813 10.1975C33.4927 9.80029 33.0232 9.59084 32.5169 9.59084C31.8987 9.59084 31.4405 9.9013 31.3894 9.93268L30.7825 10.3614L31.4377 10.716ZM32.5183 10.0495C32.836 10.0495 33.2062 10.1576 33.5566 10.5208C34.6555 11.6416 35.6781 11.7042 35.6781 11.7042C35.4924 12.1172 34.9534 12.4803 34.3961 12.4803C34.2671 12.4803 34.138 12.4604 34.0089 12.4163C33.253 12.16 32.9821 11.0207 31.6532 10.3114C31.6532 10.3114 32.0249 10.0495 32.5183 10.0495Z" fill="#2C3F4D"/>
<path d="M31.7352 16.7666V16.7895C31.3524 13.6878 29.1087 11.4477 26.6126 10.0849C26.3815 9.96094 26.1688 9.85561 25.9617 9.75446C26.7218 9.87268 27.9458 9.88692 28.8903 9.06377C28.8903 9.06377 27.4451 10.1319 24.4839 9.16208C25.3037 9.6961 26.8963 10.4495 28.35 11.6699C31.985 14.8768 29.3838 18.0056 29.3838 18.0056C30.6901 16.6371 30.7439 15.1703 30.3597 13.9727C31.0474 15.1219 31.4871 16.5174 31.419 18.2377C31.3184 20.7028 29.9696 22.8347 28.5499 24.5479C27.8677 25.3795 27.7147 26.4006 27.7147 26.4006C27.7147 26.4006 27.9898 25.4992 28.7797 24.572C30.3014 22.7835 31.6019 20.9249 31.7721 18.2477C31.9295 18.7334 32.5777 20.0848 33.6059 20.5932C33.6087 20.5946 32.3167 19.8128 31.7352 16.7666Z" fill="#2C3F4D"/>
<path d="M12.3639 28.2437C12.3624 28.2395 12.0986 27.8251 12.0136 26.7043C11.9144 25.3615 11.4093 24.5782 10.9102 24.1282C11.0549 24.0598 11.1882 23.9758 11.3002 23.8719C12.0334 23.2096 12.0022 22.4307 11.9979 22.3467L11.9696 21.9266L11.5498 21.9195C10.4308 21.9009 9.64934 21.5649 9.01539 20.8285C8.86791 20.6549 8.74884 20.4825 8.65242 20.3131C9.00118 20.4198 9.42808 20.4997 9.93439 20.4997C10.0706 20.4997 10.211 20.491 10.3599 20.4811C11.147 20.4128 11.6803 19.9427 11.7398 19.8901L12.1752 19.4886L11.6774 19.1667C10.5641 18.4518 9.42668 17.0961 10.3003 14.7207C10.8662 13.1756 12.1752 11.7756 14.3026 10.4341C15.0202 9.97837 15.413 9.44308 15.413 8.93039C15.413 8.13854 14.7549 7.82673 14.2713 7.60453C14.0359 7.49204 13.7906 7.37956 13.6715 7.24144C13.2971 6.80702 13.6133 5.97256 13.9594 5.52106L14.4047 4.93581L13.6842 4.79337C13.663 4.79055 13.4743 4.75497 13.185 4.75497C12.646 4.75497 11.6193 4.88599 10.7797 5.75894C10.0805 6.48523 9.9884 7.25851 10.0238 7.75689C9.9557 7.76263 9.88769 7.76553 9.81673 7.76971H9.74021C8.68786 7.76971 8.19007 6.65043 8.17024 6.60623L7.87373 5.90701L7.39436 6.49656C7.3675 6.53225 6.66691 7.40945 6.83707 8.50737C6.95052 9.23787 7.40716 9.8673 8.19141 10.3858C8.27651 10.4399 8.33608 10.4883 8.37862 10.5268C6.90232 11.0095 6.07689 12.069 5.20465 13.1827L5.07842 13.3408C3.74536 15.0439 1.85909 15.0939 1.6336 15.0939L0.991211 15.0739L1.18687 15.6876C1.20957 15.7616 1.77827 17.5048 3.48576 17.5048L3.56806 17.502C3.74815 17.4963 3.90988 17.472 4.05455 17.4436C3.98356 18.3934 3.6361 20.1493 2.06614 20.8044L1.58678 21.0038L1.84639 21.4566C1.87189 21.4979 2.45337 22.4848 3.77224 22.4848C4.34808 22.4834 4.7962 22.3381 5.13236 22.163C5.18343 22.593 5.28835 23.1456 5.49401 23.7622C5.97198 25.1891 5.52663 26.1888 5.50958 26.2287L5.27417 26.7272L5.80746 26.8696C5.84287 26.8781 6.17051 26.9606 6.55764 26.9606C6.7392 26.9606 6.90658 26.9407 7.05692 26.9051C7.4611 26.8096 7.77309 26.6304 8.00989 26.4252C8.15456 26.8723 8.40275 27.3765 8.83253 27.8237C9.56424 28.5784 10.6165 28.96 11.9922 28.96L12.8262 28.9487L12.3639 28.2437ZM11.961 28.5044C8.17298 28.5044 8.26947 25.2418 8.26947 25.2418C8.26947 25.2418 8.00574 26.2073 6.94913 26.4594C6.82289 26.4936 6.68813 26.5065 6.55624 26.5065C6.21591 26.5065 5.9223 26.4266 5.9223 26.4266C5.9223 26.4266 6.47255 25.2546 5.92368 23.6156C5.46991 22.2555 5.54369 21.2473 5.54369 21.2473C5.54369 21.2473 5.03449 22.0219 3.76808 22.029H3.75529C2.70158 22.029 2.24205 21.2273 2.24205 21.2273C4.76645 20.1749 4.51824 16.7771 4.51824 16.7771C4.51824 16.7771 4.19071 17.022 3.54962 17.0463C3.52692 17.0476 3.50569 17.0477 3.48298 17.0477C2.09024 17.0477 1.61942 15.551 1.61942 15.551H1.64777C1.9045 15.551 3.97087 15.4911 5.43302 13.6241C6.396 12.3965 7.1859 11.3185 8.74167 10.8928L8.89766 10.8658L8.93177 10.7091C8.97432 10.4698 8.81263 10.2463 8.44248 10.0041C6.29246 8.58996 7.75325 6.78708 7.75325 6.78708C7.75325 6.78708 8.36449 8.22836 9.74154 8.22836C9.77558 8.22836 9.80681 8.22687 9.84226 8.22687C9.99677 8.2183 10.15 8.21263 10.3003 8.17991L10.5542 8.13004C10.5542 8.13004 10.1613 7.06054 11.1087 6.07793C11.8207 5.336 12.6872 5.21069 13.1864 5.21069C13.4403 5.21069 13.5977 5.24338 13.5977 5.24338C13.124 5.86711 12.7808 6.90105 13.3281 7.53908C13.8019 8.08733 14.9578 8.11439 14.9578 8.9318C14.9578 9.27782 14.6359 9.68235 14.0573 10.0454C12.317 11.1463 10.5897 12.6073 9.87201 14.5626C8.97572 17.0035 9.98692 18.6227 11.4321 19.5526C11.4321 19.5526 10.9782 19.9713 10.3216 20.024C10.1883 20.0368 10.0593 20.0424 9.93439 20.0424C8.55023 20.0424 7.83406 19.3902 7.83406 19.3902C7.83406 19.3902 7.95313 20.2918 8.66944 21.1291C9.33877 21.9023 10.211 22.358 11.5442 22.3766C11.5442 22.3766 11.5867 22.9975 10.9967 23.5342C10.6181 23.8732 9.74717 23.9843 9.74717 23.9843C9.74717 23.9843 11.3811 24.3161 11.5597 26.737C11.6576 28.0486 11.988 28.5044 11.988 28.5044H11.961Z" fill="#2C3F4D"/>
<path d="M3.52471 12.9366C3.70767 12.9366 3.88636 12.9095 4.05504 12.8511C4.53161 12.693 4.83367 12.3128 5.15277 11.9183C5.47902 11.5139 5.84632 11.0582 6.48304 10.7179L7.13833 10.3647L6.52985 9.936C6.47878 9.90327 6.02213 9.5943 5.40524 9.5943C4.89753 9.5943 4.42669 9.8022 4.03947 10.2008C3.09495 11.1693 2.24828 11.2475 2.21705 11.249L1.55762 11.2874L1.82853 11.8955C2.10074 12.4979 2.81411 12.9366 3.52471 12.9366ZM4.36424 10.5228C4.71596 10.1595 5.08613 10.0514 5.40524 10.0514C5.8959 10.0514 6.26746 10.3133 6.26746 10.3133C4.94007 11.024 4.66776 12.1619 3.90898 12.4182C3.78422 12.4623 3.65373 12.4823 3.52471 12.4823C2.96731 12.4823 2.42837 12.1206 2.24402 11.7062C2.24402 11.7048 3.26511 11.642 4.36424 10.5228Z" fill="#2C3F4D"/>
<path d="M6.50132 18.2392C6.43042 16.5188 6.8701 15.1232 7.55929 13.974C7.17493 15.1717 7.22747 16.6385 8.53504 18.007C8.53504 18.007 5.93401 14.8783 9.57029 11.6713C11.0255 10.4508 12.6167 9.69744 13.435 9.16343C10.4752 10.1332 9.02995 9.06519 9.02995 9.06519C9.97448 9.88834 11.1985 9.8741 11.9587 9.75454C11.753 9.85554 11.5374 9.96094 11.309 10.0848C8.81024 11.4477 6.56796 13.6878 6.1836 16.7894V16.7653C5.6036 19.8114 4.31299 20.5932 4.31299 20.5932C5.33982 20.0847 5.98656 18.7347 6.14394 18.2477C6.31558 20.925 7.61604 22.7834 9.13776 24.5721C9.92771 25.4991 10.2057 26.4006 10.2057 26.4006C10.2057 26.4006 10.0511 25.3794 9.3662 24.5478C7.94933 22.8375 6.60059 20.7042 6.50132 18.2392Z" fill="#2C3F4D"/>
<path d="M18.105 11.9642V12.5794C18.3164 12.3216 18.7248 12.3744 18.7248 12.3744V13.2616C18.7248 13.2616 18.7106 13.6973 18.556 13.8867H18.9985H19.4396C19.2879 13.6987 19.2722 13.2616 19.2722 13.2616V12.3744C19.2722 12.3744 19.6806 12.3216 19.8906 12.5794V11.9642H18.9985H18.105Z" fill="#2C3F4D"/>
<path d="M17.7253 8.31519C18.0074 8.5403 18.1706 8.57727 18.1763 8.5816L18.2868 8.63281V8.05318L17.2488 7.61458C17.2488 7.61599 17.2587 7.95061 17.7253 8.31519Z" fill="#2C3F4D"/>
<path d="M20.1944 8.31519C20.6638 7.95061 20.6723 7.61458 20.6723 7.61458L19.6343 8.05318V8.63281L19.7434 8.5816C19.7505 8.57727 19.9122 8.5403 20.1944 8.31519Z" fill="#2C3F4D"/>
<path d="M22.0646 5.95498C22.0646 5.07632 20.5911 4.28596 18.9644 4.28596H18.963H18.9587H18.9545C17.3278 4.28596 15.8542 5.07632 15.8542 5.95498L15.8869 6.17141L16.5364 9.91532L15.8841 10.2956L14.1964 11.2853H14.2021C14.2021 11.2853 13.822 11.4804 13.646 11.6014C13.0037 12.0501 12.8676 12.7037 13.2404 12.9743C13.3327 12.4417 13.7524 11.8834 14.5382 11.8834C15.104 11.8834 15.5352 12.1767 15.8841 12.6168C15.9734 12.7279 16.0585 12.8461 16.138 12.9743C16.2357 13.1351 16.3335 13.2762 16.4315 13.4129H12.0847C12.4038 14.058 12.7072 14.7416 12.7072 15.4835V25.1445C12.7072 27.4828 14.4984 28.5993 16.4357 28.5993C17.9333 28.5993 18.1348 28.531 18.9616 29.3569C19.7842 28.5295 19.9856 28.5993 21.4846 28.5993C23.4233 28.5993 25.2117 27.4828 25.2117 25.1445V15.4835C25.2117 14.7416 25.5152 14.058 25.8357 13.4129H21.4874C21.5839 13.2776 21.6818 13.1351 21.7795 12.9743C21.8604 12.8461 21.944 12.7279 22.032 12.6168C22.3837 12.1754 22.8134 11.8834 23.3793 11.8834C24.165 11.8834 24.5834 12.4402 24.677 12.9743C25.0501 12.7037 24.9152 12.0501 24.2685 11.6014C24.0955 11.4804 23.7153 11.2853 23.7153 11.2853H23.7211L22.0334 10.2956L21.3839 9.91532L22.0334 6.17141L22.0646 5.95498ZM16.4938 6.39075L18.7772 7.16826V10.7698L17.0967 9.87976L16.4938 6.39075ZM16.9662 14.0409C17.3406 14.4154 17.7079 14.6476 18.0568 14.7757C18.0113 14.9566 17.9519 15.3297 18.1206 15.7013C18.2581 16.0004 18.5078 16.2312 18.8665 16.385C18.9063 16.7553 19.1389 17.312 19.7842 17.5584C19.502 17.8446 19.2268 18.1138 19.1147 18.2234L16.4981 18.1821C16.4385 18.1522 16.3378 18.0853 16.2925 17.9899C16.2868 17.9771 16.2783 17.9699 16.2741 17.9557L16.7009 18.0255C16.7109 18.0269 16.7193 18.0269 16.7279 18.0269C16.8102 18.0269 16.8825 17.9699 16.8967 17.8845C16.9108 17.7891 16.847 17.7022 16.7549 17.6879L16.2301 17.6053L16.813 15.5845L16.2613 14.4183L15.3764 15.3582L15.3224 17.4601L14.7283 17.3661C14.636 17.3476 14.5481 17.416 14.5325 17.5085C14.5183 17.6012 14.5807 17.6879 14.6743 17.7051L14.9239 17.7435C14.8346 17.7948 14.7764 17.8346 14.7693 17.8403L14.7182 17.8759L14.7041 17.9387C14.5595 18.5282 14.887 19.0879 15.2403 19.3385L15.2274 19.4125C15.2133 19.5037 15.2331 19.5919 15.287 19.666C15.338 19.7415 15.4174 19.7871 15.5053 19.8027C15.5238 19.8056 15.5436 19.807 15.5608 19.807C15.7138 19.807 15.8472 19.7002 15.8855 19.545C16.0173 19.5606 16.138 19.5635 16.2202 19.5635H16.2897L19.7232 20.1858L19.7813 20.1474C20.055 19.9551 21.0974 19.1919 21.4392 18.9397C21.5328 19.0209 21.6377 19.095 21.7654 19.1562C21.6548 19.5292 21.6477 20.1032 22.0859 20.5561H13.3355V15.4849C13.3355 14.9936 13.1923 14.4995 13.0235 14.0438H16.9662V14.0409ZM21.2094 18.6806C20.862 18.9369 19.9685 19.5919 19.6452 19.8198L16.5251 19.2573C16.5322 19.2288 16.5393 19.2018 16.5464 19.1733C16.5875 19.0109 16.6286 18.7888 16.6315 18.5282L19.2538 18.5709L19.3034 18.5196C19.3431 18.4798 20.1742 17.6737 20.5982 17.2095C20.6989 17.3362 20.8251 17.4573 20.9896 17.564C20.9329 17.8717 20.957 18.3103 21.2094 18.6806ZM15.9862 18.1379C16.0599 18.2932 16.1932 18.3972 16.2854 18.4556C16.2826 18.6008 16.2683 18.8272 16.2301 19.0266C16.2216 19.0707 16.2103 19.112 16.1975 19.1533C16.1904 19.179 16.1832 19.2004 16.1776 19.2174C16.0401 19.2174 15.7691 19.2004 15.5479 19.1192C15.3027 19.028 14.9367 18.5766 15.0218 18.0796C15.1282 18.014 15.3735 17.8759 15.6033 17.8759C15.7805 17.8745 15.9011 17.9585 15.9862 18.1379ZM15.6614 17.5128L15.7138 15.4949L16.1648 15.015L16.4485 15.6102L15.8897 17.547L15.6614 17.5128ZM21.1811 27.9741C21.0109 27.9741 20.8535 27.977 20.7116 27.9827L21.0833 26.822C21.1414 26.6611 20.8478 26.4546 20.7272 26.2738C20.9102 26.3892 21.3839 26.6412 21.6123 26.7423C21.5882 26.7793 21.1811 27.9741 21.1811 27.9741ZM22.3469 26.6554L22.1044 27.9258C21.9498 27.9471 21.7853 27.9584 21.6165 27.9656L21.8718 26.7438C21.9483 26.3805 20.9769 26.268 20.4976 25.5546C20.2635 25.8195 19.8225 25.8979 19.38 25.8979C18.9758 25.8979 18.5716 25.8323 18.3262 25.7839C18.2638 25.774 18.2042 25.7668 18.1461 25.7668C18.0043 25.7668 17.8752 25.811 17.7859 25.9619L17.715 26.0815L16.3918 25.7682L16.0628 26.3151C16.0159 26.4034 16.0131 26.4789 16.0883 26.5614L16.1776 26.6598C16.1166 26.8534 15.8415 27.1453 15.8415 27.1453L15.6445 26.8989C15.4883 26.7238 15.5139 26.4048 15.677 26.1086L16.2017 25.2185L17.3222 25.3809L17.1477 24.9821C16.9137 24.4552 17.2697 23.7845 17.308 23.3985C17.2952 23.5153 17.1888 23.541 17.064 23.541C16.9505 23.541 16.8243 23.5196 16.7406 23.5196C16.708 23.5196 16.6796 23.5224 16.6641 23.5338L16.3606 23.719L16.1209 23.5068C16.0925 23.4655 16.0826 23.37 16.1535 23.2989L16.708 22.6751L16.0529 21.9075L16.9704 22.3704L17.2497 22.03C17.3265 22.1055 17.2938 22.3034 17.2938 22.3034C17.5803 22.3105 18.3829 22.7563 18.4255 23.7959C18.4283 23.8271 18.4283 23.8628 18.4283 23.8969C18.4283 23.8969 18.4355 23.9098 18.4496 23.9311C18.5064 24.0095 18.6623 24.2103 18.8608 24.2288L20.1288 24.3541H20.1344C20.2735 24.3541 20.55 24.1904 20.9045 24.1904C21.0974 24.1904 21.313 24.2402 21.5427 24.3854C21.5427 24.3854 21.6576 24.2943 21.8448 24.2843C21.8589 24.2829 21.8747 24.2829 21.8888 24.2829C22.4575 24.2829 22.6929 24.7985 22.9978 25.2271C23.2276 25.5532 23.534 26.0374 23.534 26.0374C23.4205 26.1726 23.3155 26.2467 23.1396 26.2467C23.0915 26.2467 23.0361 26.2424 22.9765 26.2311C22.3667 26.1185 22.2789 24.8597 21.9314 24.7599C21.9129 24.7543 21.8931 24.7528 21.8761 24.7528C21.764 24.7528 21.7144 24.8526 21.7144 24.8526C21.8731 25.2811 21.781 25.455 21.9512 25.7853C22.0788 26.0303 22.3057 26.2325 22.3993 26.3279C22.3993 26.3307 22.3738 26.5159 22.3469 26.6554ZM15.538 25.4535L15.5961 25.6002C15.5579 25.7284 15.1182 25.9106 15.1182 25.9106L15.0232 25.7027C14.9225 25.4805 14.9438 25.106 15.2501 24.8767L15.9621 24.441L16.7166 24.6018C16.7024 24.8425 16.8455 25.022 16.8455 25.022L16.0543 24.8697L15.5806 25.1986C15.5011 25.2541 15.4955 25.3581 15.538 25.4535ZM22.466 27.856L22.683 26.7195C22.6943 26.6526 22.7085 26.5743 22.7184 26.5087C22.7794 26.5344 22.8447 26.5558 22.9156 26.5686C22.9964 26.5842 23.0715 26.5913 23.1396 26.5913C23.4716 26.5913 23.6644 26.4162 23.7935 26.2666L23.9609 26.0716L23.8246 25.858C23.8119 25.8366 23.5112 25.3581 23.2787 25.0305C23.2332 24.9665 23.1892 24.9024 23.1453 24.8326C22.8815 24.4366 22.5511 23.9398 21.8888 23.9398L21.8292 23.9412C21.72 23.9483 21.6264 23.9696 21.5513 23.998C21.3428 23.8998 21.1286 23.85 20.9059 23.85C20.6322 23.85 20.4011 23.9255 20.2479 23.9781C20.2039 23.991 20.1643 24.0052 20.133 24.0109L18.8949 23.8884C18.8793 23.8856 18.8282 23.8557 18.7672 23.7817V23.7759L19.0353 23.6677C18.9601 22.772 18.1035 22.2208 17.6256 22.0343C17.6044 21.9445 17.5619 21.8548 17.4867 21.7822L17.22 21.5287L16.986 21.8107L16.8711 21.9546L15.1381 21.2396L16.2656 22.6609L15.8202 23.3373C15.6571 23.5111 15.8373 23.6848 15.8373 23.6848L16.2967 24.0024L16.7733 23.8244C16.7903 23.8244 16.8045 23.8287 16.8201 23.83C16.7974 23.9026 16.7676 24.1875 16.7477 24.2672L15.9209 24.1034L15.0516 24.5962C14.6048 24.9252 14.5438 25.4706 14.7098 25.8438L14.8062 26.0558L14.9438 26.355L15.2472 26.2282C15.2515 26.2267 15.2558 26.2253 15.2586 26.2226C15.1494 26.5728 15.1934 26.906 15.3891 27.1254L15.5734 27.3589L15.8189 27.6708L16.0883 27.3803C16.1677 27.3005 16.4244 27.0115 16.5038 26.7637L16.562 26.5742L16.4301 26.429L16.4088 26.4034L16.5563 26.1584L17.6355 26.4133L17.8781 26.4689L18.0071 26.2552L18.0781 26.1384C18.0908 26.1143 18.095 26.1099 18.1447 26.1099C18.183 26.1099 18.2213 26.1143 18.2624 26.1228C18.6694 26.1997 19.0452 26.2382 19.3785 26.2382C19.7019 26.2382 19.8947 26.2253 20.1259 26.1485C20.1259 26.1485 20.7059 26.8092 20.7258 26.8349L20.3713 27.9343L20.3557 28.0012C19.6834 28.0552 19.3559 28.2034 18.9601 28.6007C18.3858 28.0282 17.9787 27.9685 16.4344 27.9685C14.5863 27.9685 13.3341 26.8805 13.3341 25.1431V20.8951H24.5834L24.5863 25.1431C24.5876 26.5529 23.7637 27.5355 22.466 27.856ZM24.8982 14.0409C24.7267 14.4966 24.5834 14.9908 24.5834 15.4821L24.5849 18.6521C23.9254 18.541 23.8474 17.8275 23.8445 17.7962L23.8317 17.651L23.69 17.6381C23.4034 17.6111 23.2134 17.4885 23.0531 17.332C22.7298 17.0073 22.7283 16.4804 22.7298 16.476C22.7256 16.5031 22.3738 16.9972 22.7823 17.537C22.9538 17.7649 23.202 17.9045 23.524 17.96C23.5992 18.3559 23.8927 18.9141 24.5849 18.9996V20.5518H22.639C21.7413 20.0506 22.1213 19.1676 22.1398 19.1306L22.2164 18.9625L22.0448 18.897C21.0733 18.5353 21.34 17.5612 21.3541 17.5199L21.3938 17.3775L21.2619 17.3149C20.4592 16.9417 20.5684 15.9349 20.5784 15.8937C20.3316 16.0944 20.2422 16.5045 20.4124 16.9061C20.3203 17.0115 20.1969 17.1397 20.0621 17.2792C19.2311 17.0671 19.2056 16.2995 19.2056 16.264L19.204 16.1457L19.0949 16.103C18.7701 15.9819 18.5475 15.8011 18.4382 15.5575C18.3149 15.2885 18.3588 15.0065 18.3929 14.8711C18.4879 14.8925 18.5829 14.9082 18.6737 14.9153C18.7672 14.9252 18.8637 14.931 18.9601 14.931H18.9658H18.9729C19.0694 14.931 19.1645 14.9252 19.258 14.9153C19.7756 14.864 20.3557 14.6405 20.9599 14.0394H24.8982V14.0409ZM21.8661 10.8366L22.6347 11.2853H22.6461L22.839 11.3978C22.405 11.5188 22.0731 11.7367 21.7952 12.023C21.7853 12.0315 21.7754 12.0429 21.7654 12.0529C21.7016 12.1212 21.6377 12.1953 21.5782 12.2708C21.5668 12.285 21.5555 12.3007 21.5427 12.3164C21.4832 12.3932 21.4279 12.4716 21.3739 12.5541C21.3655 12.5685 21.3555 12.5827 21.3456 12.5954C21.2817 12.6909 21.2208 12.7934 21.1598 12.8987C20.6124 13.8458 19.7388 14.4112 18.9616 14.4126C18.1859 14.4112 17.3123 13.8458 16.7647 12.8987C16.7052 12.7962 16.6457 12.6966 16.5818 12.5997C16.569 12.5812 16.5577 12.5627 16.5464 12.547C16.4925 12.4687 16.4385 12.3918 16.3833 12.3193C16.3691 12.2993 16.3563 12.2836 16.3421 12.2665C16.2826 12.1938 16.2216 12.1212 16.1606 12.0543C16.1479 12.0444 16.1394 12.0315 16.1266 12.0201C15.8472 11.7339 15.5167 11.5174 15.0813 11.3978L15.2771 11.2853H15.2856L16.0543 10.8366L16.8441 10.3825L18.9545 11.5359L18.9587 11.5317L18.9644 11.5359L21.0747 10.3825L21.8661 10.8366ZM20.8251 9.8811L19.1431 10.7712V7.16826L21.4251 6.39075L20.8251 9.8811ZM18.9601 6.77239L16.4584 5.77984C16.6712 5.2743 17.6526 4.84415 18.9601 4.84274C20.2692 4.84415 21.2506 5.2743 21.4619 5.77984L18.9601 6.77239Z" fill="#2C3F4D"/>
<path d="M49.9403 21.8441V16.1419H53.2712V14.0669H44.1841V16.1419H47.5149V21.8441H49.9403ZM56.5864 18.5927V14.0669H54.2419V21.8441H56.3116L60.3539 17.3183V21.8441H62.6984V14.0669H60.6287L56.5864 18.5927ZM70.5864 18.9522V21.8441H72.9312V14.0669H70.5864V16.9098H66.8186V14.0669H64.4741V21.8441H66.8186V18.9522H70.5864ZM79.4599 21.8441C79.993 21.8441 80.4783 21.7951 80.9312 21.6644C82.1444 21.3213 82.9363 20.3246 82.9363 18.9685C82.9363 17.6777 82.2576 16.7791 81.1745 16.3706C80.6555 16.1746 80.0422 16.1582 79.4599 16.1582H77.0504V14.0669H74.7063V21.8441H79.4599ZM79.0555 17.9882C79.379 17.9882 79.6864 17.9882 79.9613 18.0862C80.3496 18.2169 80.576 18.5437 80.576 18.9358C80.576 19.3443 80.3496 19.6874 79.9775 19.8508C79.7187 19.9652 79.4599 19.9652 79.0555 19.9652H77.0504V17.9882H79.0555ZM87.1399 18.9032L89.9376 21.8441H93.0574L89.1612 17.7921L92.9126 14.0669H89.97L87.1399 16.9915H86.4936V14.0669H84.1495V21.8441H86.4936V18.9032H87.1399ZM97.882 13.8545C94.7285 13.8545 92.8373 15.6517 92.8373 17.9718C92.8373 20.292 94.7285 22.0892 97.882 22.0892C101.019 22.0892 102.911 20.292 102.911 17.9718C102.911 15.6517 101.019 13.8545 97.882 13.8545ZM97.882 20.194C96.3137 20.194 95.3122 19.2463 95.3122 17.9718C95.3122 16.6975 96.3137 15.7661 97.882 15.7661C99.4342 15.7661 100.453 16.6975 100.453 17.9718C100.453 19.2463 99.4342 20.194 97.882 20.194ZM110.719 13.6257H108.375V14.4099C105.432 14.4753 103.669 15.7334 103.669 17.9555C103.669 20.1775 105.432 21.3376 108.375 21.403V22.1873H110.719V21.403C113.678 21.3376 115.441 20.1775 115.441 17.9555C115.441 15.7334 113.678 14.4753 110.719 14.4099V13.6257ZM108.375 19.7364C106.758 19.6711 106.046 19.0012 106.046 17.9555C106.046 16.9098 106.758 16.1582 108.375 16.0929V19.7364ZM110.719 16.0929C112.353 16.1582 113.048 16.9098 113.048 17.9555C113.048 19.0012 112.353 19.6711 110.719 19.7364V16.0929ZM123.241 13.6257H120.896V14.4099C117.953 14.4753 116.192 15.7334 116.192 17.9555C116.192 20.1775 117.953 21.3376 120.896 21.403V22.1873H123.241V21.403C126.2 21.3376 127.963 20.1775 127.963 17.9555C127.963 15.7334 126.2 14.4753 123.241 14.4099V13.6257ZM120.896 19.7364C119.279 19.6711 118.568 19.0012 118.568 17.9555C118.568 16.9098 119.279 16.1582 120.896 16.0929V19.7364ZM123.241 16.0929C124.874 16.1582 125.569 16.9098 125.569 17.9555C125.569 19.0012 124.874 19.6711 123.241 19.7364V16.0929Z" fill="#2C3F4D"/>
</g>
<defs>
<clipPath id="clip0_55_386">
<rect width="128" height="34" fill="white"/>
</clipPath>
</defs>
</svg>
