<svg width="75" height="22" viewBox="0 0 75 22" fill="none" xmlns="http://www.w3.org/2000/svg">
<path fill-rule="evenodd" clip-rule="evenodd" d="M11.9157 2.38634C12.5054 2.38289 14.2577 2.22857 15 4.67805C15.5 6.32805 16.2965 9.03083 17.3894 12.7864H17.8345C19.0066 8.82701 19.8118 6.12424 20.25 4.67805C21 2.20305 22.875 2.38638 23.625 2.38638L29.4114 2.38639V19.9863H23.5137V9.6144H23.1183L19.8306 19.9863H15.3933L12.1057 9.60671H11.7102V19.9863H5.8125V2.38639L11.9157 2.38634ZM37.8804 2.38639V12.7661H38.3509L42.35 4.23093C43.1263 2.53242 44.7809 2.38639 44.7809 2.38639H50.4881V19.9864H44.4672V9.60671H43.9967L40.076 18.1418C39.2997 19.8327 37.5667 19.9864 37.5667 19.9864H31.8595V2.38639H37.8804ZM71.2988 10.75C70.459 13.0771 67.8215 14.7436 64.9015 14.7436H58.5875V19.9864H52.862V10.75H71.2988Z" fill="#0F754E"/>
<path fill-rule="evenodd" clip-rule="evenodd" d="M65.1777 2.38646H52.5618C52.862 6.30482 56.3131 9.65918 59.8857 9.65918H71.6967C72.3783 6.40257 70.0319 2.38646 65.1777 2.38646Z" fill="url(#paint0_linear_55_374)"/>
<defs>
<linearGradient id="paint0_linear_55_374" x1="71.8125" y1="6.96132" x2="52.5618" y2="6.96132" gradientUnits="userSpaceOnUse">
<stop stop-color="#1F5CD7"/>
<stop offset="1" stop-color="#02AEFF"/>
</linearGradient>
</defs>
</svg>
