<svg width="67" height="22" viewBox="0 0 67 22" fill="none" xmlns="http://www.w3.org/2000/svg">
<g clip-path="url(#clip0_55_361)">
<path d="M29.0332 21.6826H23.6057L27.0004 0.385986H32.4276L29.0332 21.6826Z" fill="#00579F"/>
<path d="M48.7082 0.906619C47.6376 0.475713 45.9397 -6.10352e-05 43.8402 -6.10352e-05C38.4804 -6.10352e-05 34.706 2.89975 34.6829 7.0456C34.6384 10.1044 37.3852 11.8033 39.4396 12.8232C41.5394 13.8654 42.2532 14.5457 42.2532 15.4746C42.2318 16.9013 40.5564 17.559 38.9938 17.559C36.8269 17.559 35.6659 17.2199 33.9014 16.4262L33.1867 16.0859L32.4272 20.8665C33.7002 21.4549 36.0455 21.9771 38.4804 21.9999C44.1752 21.9999 47.8828 19.145 47.9267 14.7269C47.9484 12.3026 46.498 10.445 43.3709 8.92702C41.4726 7.95258 40.3101 7.29553 40.3101 6.29852C40.3324 5.39214 41.2934 4.46378 43.4362 4.46378C45.2007 4.41831 46.4971 4.84861 47.4792 5.27922L47.9701 5.50536L48.7082 0.906619Z" fill="#00579F"/>
<path d="M55.9218 14.1379C56.3688 12.9145 58.0887 8.17934 58.0887 8.17934C58.0662 8.22481 58.5348 6.93329 58.8028 6.14044L59.1821 7.97548C59.1821 7.97548 60.2099 13.0732 60.4331 14.1379C59.5849 14.1379 56.9939 14.1379 55.9218 14.1379ZM62.6214 0.385986H58.4232C57.1286 0.385986 56.145 0.770821 55.5865 2.15297L47.5247 21.6823H53.2195C53.2195 21.6823 54.1571 19.0538 54.3586 18.4877C54.9834 18.4877 60.5233 18.4877 61.3271 18.4877C61.4829 19.2353 61.9747 21.6823 61.9747 21.6823H67L62.6214 0.385986Z" fill="#00579F"/>
<path d="M19.0726 0.385986L13.7573 14.9082L13.1764 11.9629C12.1938 8.56447 9.11186 4.87211 5.67261 3.03616L10.5412 21.66H16.2806L24.8117 0.385986H19.0726Z" fill="#00579F"/>
<path d="M8.8216 0.385986H0.0893346L0 0.81629C6.81172 2.58358 11.323 6.84356 13.1765 11.9638L11.2782 2.17616C10.9656 0.815989 10.0052 0.430854 8.8216 0.385986Z" fill="#FAA61A"/>
</g>
<defs>
<clipPath id="clip0_55_361">
<rect width="67" height="22" fill="white"/>
</clipPath>
</defs>
</svg>
