<svg width="72" height="23" viewBox="0 0 72 23" fill="none" xmlns="http://www.w3.org/2000/svg">
<g id="Group 65">
<g id="Trees">
<path d="M6.35866 1.79579C3.58693 1.79579 1.59549 3.58008 0.384314 7.14865C0.361023 7.21772 0.291147 7.25225 0.174688 7.25225C0.0582294 7.22923 0 7.18318 0 7.11411C0.0931671 6.19319 0.19798 5.0075 0.314439 3.55705C0.430898 2.08358 0.489127 0.97848 0.489127 0.241743C0.489127 0.126628 0.547357 0.0690702 0.663816 0.0690702C0.803566 0.0690702 0.873442 0.126628 0.873442 0.241743C0.873442 0.74825 1.53726 1.0015 2.86489 1.0015C4.86798 1.07057 7.20881 1.1051 9.88736 1.1051C11.2616 1.1051 12.7173 1.08208 14.2546 1.03604L16.6303 1.0015C17.5154 1.0015 18.1559 0.943942 18.5519 0.828826C18.9712 0.713711 19.239 0.483485 19.3555 0.13814C19.3788 0.0460481 19.4486 0 19.5651 0C19.7048 0 19.7747 0.0460481 19.7747 0.13814C19.7048 0.828832 19.6233 1.93393 19.5302 3.45345C19.4603 4.97297 19.4253 6.19319 19.4253 7.11411C19.4253 7.18318 19.3671 7.21772 19.2507 7.21772C19.1342 7.21772 19.0643 7.18318 19.041 7.11411C18.6917 5.34134 18.0395 4.01752 17.0845 3.14264C16.1296 2.24474 14.9533 1.79579 13.5558 1.79579C12.8804 1.79579 12.4262 1.94544 12.1932 2.24474C11.9836 2.52102 11.8788 3.06206 11.8788 3.86787V19.7883C11.8788 20.502 11.9487 21.02 12.0884 21.3423C12.2282 21.6647 12.496 21.8834 12.892 21.9985C13.288 22.1136 13.9168 22.1712 14.7786 22.1712C14.8485 22.1712 14.8835 22.2402 14.8835 22.3784C14.8835 22.5165 14.8485 22.5856 14.7786 22.5856C13.9401 22.5856 13.2763 22.5741 12.7872 22.551L9.88736 22.5165L7.05741 22.551C6.56828 22.5741 5.89282 22.5856 5.03103 22.5856C4.96115 22.5856 4.92621 22.5165 4.92621 22.3784C4.92621 22.2402 4.96115 22.1712 5.03103 22.1712C5.86953 22.1712 6.48676 22.1136 6.88272 21.9985C7.30197 21.8834 7.58148 21.6647 7.72123 21.3423C7.88427 20.997 7.96579 20.479 7.96579 19.7883V3.7988C7.96579 3.01602 7.86098 2.48648 7.65135 2.21021C7.44172 1.93393 7.01083 1.79579 6.35866 1.79579Z" fill="#00654E"/>
<path d="M28.9824 8.90991C29.5182 8.90991 30.0306 9.1056 30.5197 9.497C31.0321 9.86536 31.2883 10.3143 31.2883 10.8438C31.2883 11.3273 31.1369 11.7302 30.8341 12.0526C30.5313 12.3518 30.1354 12.5015 29.6463 12.5015C29.2969 12.5015 29.0057 12.4324 28.7728 12.2943C28.5632 12.1562 28.3419 11.9489 28.109 11.6727C27.8994 11.4424 27.713 11.2813 27.55 11.1892C27.4102 11.0741 27.2356 11.0165 27.0259 11.0165C26.793 11.0165 26.5368 11.1086 26.2573 11.2928C26.0011 11.4539 25.5935 11.8108 25.0345 12.3634V19.7883C25.0345 20.7092 25.2558 21.3423 25.6983 21.6877C26.1408 22.01 26.9561 22.1712 28.1439 22.1712C28.2371 22.1712 28.2837 22.2402 28.2837 22.3784C28.2837 22.5165 28.2371 22.5856 28.1439 22.5856C27.3287 22.5856 26.6882 22.5741 26.2224 22.551L23.3924 22.5165L21.3311 22.551C20.9817 22.5741 20.5042 22.5856 19.8986 22.5856C19.8288 22.5856 19.7938 22.5165 19.7938 22.3784C19.7938 22.2402 19.8288 22.1712 19.8986 22.1712C20.6207 22.1712 21.1098 22.01 21.366 21.6877C21.6222 21.3423 21.7503 20.7092 21.7503 19.7883V13.2958C21.7503 12.5821 21.6572 12.0641 21.4708 11.7417C21.3078 11.3964 21.0399 11.2237 20.6673 11.2237C20.2713 11.2237 19.7123 11.3849 18.9903 11.7072H18.9204C18.8505 11.7072 18.7923 11.6496 18.7457 11.5345C18.7224 11.4194 18.7341 11.3503 18.7806 11.3273L23.637 8.97897C23.7767 8.93293 23.8582 8.90991 23.8815 8.90991C24.1377 8.90991 24.3707 9.15165 24.5803 9.63513C24.8132 10.0956 24.953 10.7287 24.9995 11.5345C25.9545 10.5676 26.7348 9.88839 27.3404 9.497C27.9692 9.1056 28.5166 8.90991 28.9824 8.90991Z" fill="#00654E"/>
<path d="M45.2699 20.3063C45.3165 20.3063 45.3631 20.3523 45.4097 20.4444C45.4796 20.5365 45.4912 20.6056 45.4446 20.6517C44.5828 21.4805 43.7094 22.0791 42.8243 22.4474C41.9392 22.8158 40.9726 23 39.9245 23C38.4571 23 37.1877 22.7007 36.1163 22.1021C35.0449 21.4805 34.2296 20.6632 33.6706 19.6501C33.1116 18.6141 32.8321 17.509 32.8321 16.3348C32.8321 14.9995 33.1815 13.7678 33.8803 12.6396C34.579 11.4885 35.534 10.5906 36.7452 9.94595C37.9563 9.27828 39.3072 8.94444 40.7979 8.94444C42.242 8.94444 43.3484 9.25525 44.117 9.87688C44.8856 10.4755 45.2699 11.3043 45.2699 12.3634C45.2699 13.031 45.1418 13.3649 44.8856 13.3649H42.7544L36.4656 13.4339C36.3958 13.8714 36.3608 14.3549 36.3608 14.8844C36.3608 16.8644 36.8267 18.4299 37.7583 19.5811C38.7133 20.7322 40.0176 21.3078 41.6714 21.3078C42.2537 21.3078 42.8592 21.2272 43.4881 21.0661C44.117 20.9049 44.6876 20.6632 45.2001 20.3408L45.2699 20.3063ZM39.5052 9.63513C38.8065 9.63513 38.2009 9.91141 37.6885 10.464C37.176 11.0165 36.8034 11.7763 36.5705 12.7432L41.5316 12.6396C41.4617 10.6366 40.7863 9.63513 39.5052 9.63513Z" fill="#00654E"/>
<path d="M60.0175 20.3063C60.064 20.3063 60.1106 20.3523 60.1572 20.4444C60.2271 20.5365 60.2387 20.6056 60.1921 20.6517C59.3304 21.4805 58.4569 22.0791 57.5718 22.4474C56.6867 22.8158 55.7201 23 54.672 23C53.2046 23 51.9352 22.7007 50.8638 22.1021C49.7924 21.4805 48.9772 20.6632 48.4182 19.6501C47.8592 18.6141 47.5797 17.509 47.5797 16.3348C47.5797 14.9995 47.929 13.7678 48.6278 12.6396C49.3265 11.4885 50.2815 10.5906 51.4927 9.94595C52.7038 9.27828 54.0548 8.94444 55.5454 8.94444C56.9895 8.94444 58.0959 9.25525 58.8645 9.87688C59.6332 10.4755 60.0175 11.3043 60.0175 12.3634C60.0175 13.031 59.8894 13.3649 59.6332 13.3649H57.502L51.2132 13.4339C51.1433 13.8714 51.1084 14.3549 51.1084 14.8844C51.1084 16.8644 51.5742 18.4299 52.5059 19.5811C53.4608 20.7322 54.7652 21.3078 56.4189 21.3078C57.0012 21.3078 57.6068 21.2272 58.2356 21.0661C58.8645 20.9049 59.4352 20.6632 59.9476 20.3408L60.0175 20.3063ZM54.2528 9.63513C53.554 9.63513 52.9484 9.91141 52.436 10.464C51.9236 11.0165 51.5509 11.7763 51.318 12.7432L56.2791 12.6396C56.2093 10.6366 55.5338 9.63513 54.2528 9.63513Z" fill="#00654E"/>
<path d="M65.5365 10.9129C65.5365 11.5806 65.7694 12.1561 66.2353 12.6396C66.7244 13.1231 67.4232 13.6296 68.3315 14.1592C69.2166 14.6657 69.8688 15.0686 70.2881 15.3679C70.7306 15.6441 71.1266 16.047 71.4759 16.5766C71.8253 17.0831 72 17.7047 72 18.4414C72 19.2242 71.802 19.961 71.4061 20.6517C71.0101 21.3423 70.4162 21.9064 69.6242 22.3438C68.8323 22.7583 67.889 22.9655 66.7943 22.9655C65.5132 22.9655 64.3021 22.6546 63.1608 22.033C63.021 21.8949 62.9511 21.7567 62.9511 21.6186L62.8813 18.1997C62.8813 18.1306 62.9395 18.0961 63.0559 18.0961C63.1957 18.0731 63.2772 18.0846 63.3005 18.1306C63.6732 19.2818 64.2904 20.2603 65.1522 21.0661C66.014 21.8719 66.8874 22.2748 67.7725 22.2748C68.2617 22.2748 68.646 22.1251 68.9255 21.8258C69.2283 21.5265 69.3797 21.0891 69.3797 20.5135C69.3797 19.6617 69.1351 18.994 68.646 18.5105C68.1568 18.004 67.4348 17.486 66.4798 16.9565C65.6646 16.519 65.0474 16.1622 64.6281 15.8859C64.2089 15.6096 63.8362 15.2182 63.5101 14.7117C63.1841 14.2052 63.021 13.5836 63.021 12.8468C63.021 11.4885 63.5101 10.4985 64.4884 9.87688C65.4666 9.23223 66.6662 8.90991 68.087 8.90991C68.6227 8.90991 69.1002 8.94444 69.5194 9.01351C69.962 9.08258 70.4511 9.22071 70.9868 9.42792C71.1964 9.49699 71.3012 9.62362 71.3012 9.80781C71.3012 10.3834 71.2896 10.8323 71.2663 11.1547L71.2314 12.8814C71.2314 12.9504 71.1615 12.985 71.0217 12.985C70.882 12.985 70.8121 12.9504 70.8121 12.8814C70.8121 12.4439 70.6258 11.972 70.2531 11.4655C69.8804 10.9359 69.3913 10.487 68.7857 10.1186C68.2034 9.75025 67.5978 9.56606 66.969 9.56606C66.014 9.56606 65.5365 10.015 65.5365 10.9129Z" fill="#00654E"/>
</g>
</g>
</svg>
