<svg width="80" height="80" viewBox="0 0 80 80" fill="none" xmlns="http://www.w3.org/2000/svg">
<rect width="80" height="80" fill="#C9C9C9"/>
<g id="1024" clip-path="url(#clip0_0_1)">
<rect width="1024" height="3277" transform="translate(-95 -670)" fill="white"/>
<g id="benefits">
<rect id="Rectangle 22" x="-95" y="-40" width="1024" height="212" fill="#C0B487"/>
<g id="Frame 2">
<g id="Group 11">
<g id="tree80">
<g id="Group">
<path id="Vector" d="M39.5312 17.6875C37.2969 21.75 33.2656 25.625 29.0156 27.8281L27.1406 28.7968L27.8906 29.0937C32.7031 30.9843 39.5 31.6718 45.1094 30.8593C47.7031 30.4687 52.8281 29.0937 52.8125 28.7812C52.8125 28.7187 52.3281 28.4531 51.75 28.2031C47.4062 26.2656 42.8594 22.0312 40.4687 17.6875C40.2656 17.3281 40.0469 17.0312 40 17.0312C39.9531 17.0312 39.7344 17.3281 39.5312 17.6875Z" fill="white"/>
<path id="Vector_2" d="M31.0156 34.5469C28.0938 37.5 24.1406 40.5156 21.2188 42.0312C20.625 42.3281 20.1562 42.625 20.1562 42.6875C20.1562 42.8281 22.4688 44.2031 24.0625 45C27.1719 46.5625 31.1719 47.8125 34.8438 48.3906C37.3438 48.7656 42.6562 48.7656 45.1562 48.3906C48.875 47.7969 52.7969 46.5781 55.9531 45C57.5781 44.1875 59.8438 42.8281 59.8438 42.6719C59.8438 42.6094 59.5781 42.4375 59.2656 42.2812C57.6406 41.5156 54.1719 39.1875 52.2656 37.6094C51.75 37.1719 50.4531 35.9531 49.375 34.9062C47.4531 33.0156 47.4062 32.9844 46.875 33.0937L46.3281 33.2187L46.2812 34.875L46.2344 36.5156L46.7188 36.7187C47.7812 37.1562 48.75 38.7344 48.75 40.0312C48.75 41.5312 47.4844 43.2187 46.0781 43.5937C45.2656 43.8125 43.9688 43.7187 43.3281 43.3906C42.1719 42.7812 41.25 41.2969 41.25 40.0312C41.25 38.7344 42.2188 37.1562 43.2812 36.7187L43.75 36.5312V35.0937V33.6719H40.125C37.4219 33.6562 36.0312 33.5937 34.7031 33.375C33.7344 33.2344 32.8594 33.0625 32.75 33.0312C32.6562 33 31.875 33.6719 31.0156 34.5469Z" fill="white"/>
<path id="Vector_3" d="M23.9063 49.3281C21.4844 51.4375 18.0625 53.8594 15.0156 55.625C13.8906 56.2656 13.625 56.4844 13.7656 56.6562C13.8594 56.7656 14.5781 57.3437 15.3594 57.9375C30.0156 68.9844 49.9219 69 64.5938 57.9844C65.3907 57.3906 66.125 56.7969 66.2188 56.6719C66.3594 56.5 66 56.2187 64.25 55.1875C61.6094 53.6094 58.6719 51.5156 56.4844 49.6719L54.8282 48.2656L53.625 48.7344C50.5782 49.9062 46.7188 50.7812 43.2031 51.1094C41.2656 51.2812 37.2344 51.2187 35.6719 51L35 50.8906V52.4531V54.0312L35.4688 54.2187C36.5313 54.6562 37.5 56.2344 37.5 57.5312C37.5 59.0312 36.2344 60.7187 34.8281 61.0937C34.0156 61.3125 32.7188 61.2187 32.0781 60.8906C30.9219 60.2812 30 58.7969 30 57.5312C30 56.2344 30.9688 54.6562 32.0313 54.2187L32.5 54.0312V52.2812V50.5312L30.75 50.0937C29.7813 49.8437 28.125 49.3437 27.0781 48.9687C26.0313 48.5937 25.1563 48.2812 25.125 48.2969C25.0938 48.2969 24.5469 48.7656 23.9063 49.3281Z" fill="white"/>
<path id="Vector_4" d="M35.8594 69.1406C35.7969 69.5781 35.1562 75.875 35.1562 76.1406C35.1562 76.2031 37.3438 76.25 40 76.25C42.6719 76.25 44.8438 76.2031 44.8438 76.1406C44.8438 75.875 44.2031 69.5781 44.1406 69.1406L44.0625 68.6719H40H35.9375L35.8594 69.1406Z" fill="white"/>
</g>
</g>
</g>
</g>
</g>
</g>
<defs>
<clipPath id="clip0_0_1">
<rect width="1024" height="3277" fill="white" transform="translate(-95 -670)"/>
</clipPath>
</defs>
</svg>
