<svg width="55" height="55" viewBox="0 0 55 55" fill="none" xmlns="http://www.w3.org/2000/svg">
<g clip-path="url(#clip0_103_23)">
<path fill-rule="evenodd" clip-rule="evenodd" d="M26.1573 -0.0537109C26.4796 -0.0537109 26.8018 -0.0537109 27.1241 -0.0537109C26.079 1.85713 25.0585 3.79072 24.0626 5.74707C23.0848 7.70241 22.2254 9.70762 21.4844 11.7627C20.8721 13.3197 20.6215 14.931 20.7325 16.5967C20.8395 17.2046 21.1796 17.6164 21.753 17.832C26.412 18.2147 31.0669 18.161 35.7178 17.6709C36.5672 18.6898 37.3908 19.7281 38.1885 20.7861C38.1381 20.9143 38.0306 20.9859 37.8663 21.001C32.9501 21.7721 28.0087 22.0584 23.0421 21.8604C21.3372 25.7177 19.6184 29.5669 17.8858 33.4082C18.337 33.555 18.8024 33.6088 19.2823 33.5693C19.9054 31.4673 20.6037 29.3904 21.377 27.3389C21.9307 29.5164 22.4498 31.7006 22.9346 33.8916C28.5471 34.1405 34.133 33.8899 39.6924 33.1396C40.5469 34.2808 41.442 35.3908 42.378 36.4697C39.3354 37.1097 36.2559 37.5215 33.1397 37.7051C28.7339 37.9324 24.3296 37.9144 19.9268 37.6514C19.7836 37.6871 19.6403 37.723 19.4971 37.7588C18.0017 39.4234 16.8021 41.2854 15.8985 43.3447C15.2205 44.7712 15.2563 46.1677 16.0059 47.5342C16.6179 48.2064 17.3519 48.6719 18.2081 48.9307C15.9038 48.7761 13.6121 48.5075 11.3331 48.125C9.52458 48.0315 8.14601 47.2259 7.19733 45.708C6.6417 44.2533 6.89235 42.9642 7.94928 41.8408C10.379 39.0041 12.7961 36.1575 15.2003 33.3008C14.1611 33.0853 13.1226 32.8346 12.085 32.5488C9.75922 31.2528 9.41906 29.552 11.0645 27.4463C13.8084 24.2372 16.5119 20.9966 19.1749 17.7246C18.3236 17.5416 17.4642 17.3984 16.5967 17.2949C14.6956 16.9736 13.8899 15.8816 14.1798 14.0186C17.6222 9.82435 21.0239 5.5991 24.3848 1.34277C24.8748 0.725022 25.4656 0.259527 26.1573 -0.0537109Z" fill="#3DAD52"/>
<path opacity="0.993" fill-rule="evenodd" clip-rule="evenodd" d="M27.1239 -0.0537109C27.661 -0.0537109 28.1982 -0.0537109 28.7353 -0.0537109C29.285 0.153541 29.7684 0.475807 30.1855 0.913086C33.6174 5.3048 37.1264 9.63749 40.7128 13.9111C41.1555 15.4428 40.6363 16.499 39.1552 17.0801C38.0217 17.352 36.8758 17.5489 35.7177 17.6709C31.0667 18.161 26.4118 18.2147 21.7528 17.832C21.1794 17.6164 20.8393 17.2046 20.7323 16.5967C20.6214 14.931 20.872 13.3197 21.4843 11.7627C22.2253 9.70762 23.0847 7.70241 24.0624 5.74707C25.0583 3.79072 26.0788 1.85713 27.1239 -0.0537109Z" fill="#4CC067"/>
<path opacity="0.995" fill-rule="evenodd" clip-rule="evenodd" d="M38.1885 20.7861C40.2813 23.2492 42.376 25.7199 44.4727 28.1982C45.2856 29.834 44.9454 31.1767 43.4521 32.2266C42.2688 32.806 41.0156 33.1103 39.6924 33.1396C34.133 33.8899 28.547 34.1405 22.9346 33.8916C22.4498 31.7006 21.9306 29.5164 21.377 27.3389C20.6036 29.3904 19.9054 31.4673 19.2822 33.5693C18.8024 33.6088 18.3369 33.555 17.8857 33.4082C19.6183 29.5669 21.3371 25.7177 23.042 21.8604C28.0086 22.0584 32.95 21.7721 37.8662 21.001C38.0306 20.9859 38.138 20.9143 38.1885 20.7861Z" fill="#4CC067"/>
<path opacity="0.992" fill-rule="evenodd" clip-rule="evenodd" d="M42.378 36.4697C44.0563 38.4886 45.7571 40.4939 47.4806 42.4854C48.5135 44.5167 48.0659 46.146 46.1378 47.373C45.0927 47.8535 44.0005 48.158 42.8614 48.2861C41.4239 46.5266 40.0274 44.7362 38.672 42.915C38.6183 44.8841 38.6003 46.8536 38.6183 48.8232C36.5457 49.0258 34.4689 49.169 32.3878 49.2529C29.0926 49.3818 25.7983 49.3818 22.505 49.2529C21.0507 49.2259 19.6184 49.1184 18.2081 48.9307C17.3519 48.6719 16.6179 48.2064 16.006 47.5342C15.2564 46.1677 15.2205 44.7712 15.8985 43.3447C16.8022 41.2855 18.0017 39.4234 19.4972 37.7588C19.6404 37.723 19.7837 37.6871 19.9268 37.6514C24.3296 37.9144 28.7339 37.9324 33.1397 37.7051C36.2559 37.5215 39.3354 37.1097 42.378 36.4697Z" fill="#4DC067"/>
<path opacity="0.98" fill-rule="evenodd" clip-rule="evenodd" d="M22.5049 49.2529C25.7982 49.3818 29.0925 49.3818 32.3877 49.2529C32.5498 49.8848 32.6572 50.5293 32.71 51.1865C30.5802 51.2936 28.4318 51.3294 26.2646 51.2939C26.2646 52.4756 26.2646 53.6572 26.2646 54.8389C24.7318 54.686 23.2637 54.2921 21.8604 53.6572C21.8246 53.5856 21.7887 53.514 21.7529 53.4424C22.0154 52.0468 22.266 50.6503 22.5049 49.2529Z" fill="#7F4A26"/>
<path fill-rule="evenodd" clip-rule="evenodd" d="M32.71 51.1865C32.8743 51.8837 33.0176 52.5998 33.1396 53.335C33.1039 53.4424 33.068 53.5498 33.0322 53.6572C30.8786 54.619 28.6228 55.0128 26.2646 54.8389C26.2646 53.6572 26.2646 52.4756 26.2646 51.2939C28.4318 51.3294 30.5802 51.2936 32.71 51.1865Z" fill="#925C34"/>
</g>
<defs>
<clipPath id="clip0_103_23">
<rect width="55" height="55" fill="white"/>
</clipPath>
</defs>
</svg>
